<svg width="144" height="48" viewBox="0 0 144 48" fill="none" xmlns="http://www.w3.org/2000/svg">
<g clip-path="url(#clip0_1146_9079)">
<path d="M132.284 0.111814H12.1261C11.6881 0.111814 11.2554 0.111814 10.8185 0.114203C10.4529 0.116591 10.0901 0.123519 9.72095 0.129372C8.91892 0.138806 8.11878 0.209361 7.32747 0.340424C6.53727 0.47434 5.77182 0.726819 5.05702 1.08932C4.34311 1.4549 3.6908 1.92993 3.12375 2.49717C2.55371 3.06277 2.07854 3.71653 1.71649 4.43331C1.35344 5.14873 1.10171 5.91537 0.969986 6.70675C0.837002 7.4971 0.765442 8.29656 0.755948 9.09796C0.74484 9.46417 0.743646 9.83157 0.737793 10.1979V37.8057C0.743646 38.1766 0.74484 38.5359 0.755948 38.907C0.765451 39.7083 0.837011 40.5077 0.969986 41.298C1.10136 42.0898 1.3531 42.8568 1.71649 43.5725C2.07836 44.287 2.55361 44.9381 3.12375 45.5006C3.68865 46.0704 4.34139 46.5457 5.05702 46.9085C5.77182 47.2719 6.53719 47.5259 7.32747 47.6619C8.11891 47.7919 8.91898 47.8625 9.72095 47.8731C10.09 47.8812 10.4529 47.8858 10.8186 47.8858C11.2554 47.8882 11.6881 47.8882 12.1261 47.8882H132.284C132.713 47.8882 133.149 47.8882 133.579 47.8858C133.943 47.8858 134.316 47.8812 134.68 47.8731C135.48 47.8631 136.279 47.7925 137.069 47.6619C137.861 47.525 138.63 47.271 139.348 46.9085C140.063 46.5455 140.715 46.0702 141.279 45.5006C141.848 44.9359 142.324 44.2852 142.691 43.5725C143.051 42.8563 143.301 42.0893 143.43 41.298C143.563 40.5075 143.637 39.7083 143.652 38.9069C143.657 38.5359 143.657 38.1766 143.657 37.8057C143.666 37.3718 143.666 36.9403 143.666 36.4993V11.502C143.666 11.0644 143.666 10.6306 143.657 10.1979C143.657 9.83157 143.657 9.46417 143.652 9.09784C143.637 8.29637 143.563 7.49709 143.43 6.70663C143.3 5.91579 143.051 5.14929 142.691 4.43343C141.953 2.9966 140.784 1.82703 139.348 1.0892C138.63 0.727588 137.861 0.475177 137.069 0.340305C136.279 0.208684 135.48 0.138124 134.68 0.129252C134.316 0.1234 133.943 0.116353 133.579 0.114083C133.149 0.111694 132.713 0.111694 132.284 0.111694L132.284 0.111814Z" fill="#A6A6A6"/>
<path d="M10.8246 46.8432C10.4607 46.8432 10.1056 46.8385 9.7445 46.8304C8.99655 46.8207 8.25036 46.7556 7.51202 46.6357C6.82356 46.5171 6.15664 46.2965 5.53324 45.9812C4.91554 45.6685 4.35215 45.2585 3.86465 44.7669C3.37005 44.2811 2.95828 43.7177 2.64563 43.0989C2.32958 42.4762 2.11085 41.8086 1.99707 41.1196C1.87423 40.3792 1.80779 39.6305 1.79832 38.88C1.79068 38.6281 1.78076 37.7895 1.78076 37.7895V10.1978C1.78076 10.1978 1.79127 9.37201 1.79832 9.12931C1.80742 8.38006 1.8735 7.6326 1.99599 6.89337C2.11 6.20243 2.32892 5.53296 2.64516 4.90814C2.9566 4.2898 3.36604 3.72592 3.8576 3.23836C4.34865 2.74617 4.91387 2.33407 5.53265 2.01707C6.15462 1.70282 6.8203 1.48383 7.50737 1.36743C8.24814 1.24635 8.99694 1.18091 9.74748 1.17167L10.8252 1.15686H133.573L134.664 1.17203C135.408 1.18087 136.15 1.24579 136.884 1.36624C137.578 1.48413 138.25 1.70469 138.879 2.02066C140.119 2.65947 141.128 3.67014 141.764 4.91101C142.075 5.53155 142.291 6.19559 142.403 6.88059C142.527 7.62586 142.596 8.37919 142.611 9.13457C142.614 9.47282 142.614 9.83616 142.614 10.1978C142.624 10.6457 142.624 11.072 142.624 11.5019V36.4992C142.624 36.9332 142.624 37.3566 142.614 37.7835C142.614 38.1719 142.614 38.5277 142.609 38.8939C142.596 39.6358 142.527 40.3758 142.405 41.1077C142.294 41.8018 142.076 42.4745 141.76 43.1024C141.445 43.7144 141.036 44.273 140.547 44.7575C140.059 45.2517 139.495 45.6641 138.876 45.9788C138.249 46.2965 137.577 46.5179 136.884 46.6355C136.145 46.7561 135.399 46.8212 134.651 46.8303C134.294 46.8386 133.936 46.8429 133.579 46.8431L132.284 46.8454L10.8246 46.8432Z" fill="black"/>
<path d="M30.3221 24.3592C30.3349 23.3623 30.5997 22.3848 31.0919 21.5178C31.584 20.6507 32.2874 19.9222 33.1367 19.4C32.5972 18.6294 31.8854 17.9953 31.0579 17.5479C30.2304 17.1005 29.31 16.8523 28.3697 16.8228C26.3639 16.6123 24.4196 18.023 23.3974 18.023C22.3556 18.023 20.782 16.8437 19.0875 16.8786C17.9914 16.914 16.9232 17.2327 15.9869 17.8037C15.0506 18.3747 14.2782 19.1785 13.7449 20.1367C11.4349 24.1362 13.1579 30.0139 15.3708 33.2467C16.4779 34.8298 17.7717 36.598 19.4648 36.5353C21.1214 36.4666 21.7401 35.4788 23.7401 35.4788C25.7214 35.4788 26.3018 36.5353 28.0292 36.4954C29.8069 36.4666 30.927 34.9054 31.9952 33.3074C32.7907 32.1794 33.4028 30.9328 33.8088 29.6137C32.776 29.1768 31.8946 28.4456 31.2746 27.5112C30.6546 26.5769 30.3233 25.4806 30.3221 24.3592ZM27.0594 14.6967C28.0287 13.5331 28.5063 12.0375 28.3906 10.5275C26.9097 10.683 25.5418 11.3907 24.5594 12.5097C24.0791 13.0563 23.7112 13.6923 23.4768 14.3812C23.2424 15.0701 23.1461 15.7984 23.1934 16.5246C23.9341 16.5322 24.6669 16.3717 25.3365 16.0551C26.0062 15.7384 26.5953 15.274 27.0594 14.6967ZM51.2642 32.5278H45.6106L44.2529 36.5367H41.8581L47.2132 21.7045H49.7012L55.0562 36.5367H52.6207L51.2642 32.5278ZM46.1961 30.6778H50.6775L48.4683 24.1716H48.4064L46.1961 30.6778ZM66.6212 31.1304C66.6212 34.4908 64.8225 36.6498 62.1083 36.6498C61.4208 36.6858 60.7369 36.5274 60.1352 36.1928C59.5334 35.8582 59.0381 35.3609 58.7058 34.7579H58.6545V40.1141H56.4348V25.7229H58.5834V27.5215H58.6243C58.9718 26.9214 59.4755 26.4267 60.0818 26.09C60.6881 25.7534 61.3744 25.5874 62.0675 25.6098C64.812 25.6098 66.6212 27.7793 66.6212 31.1303V31.1304ZM64.3396 31.1304C64.3396 28.9411 63.2083 27.5017 61.482 27.5017C59.7859 27.5017 58.6453 28.9713 58.6453 31.1303C58.6453 33.3093 59.7859 34.7685 61.482 34.7685C63.2083 34.7685 64.3396 33.3396 64.3396 31.1303V31.1304ZM78.5232 31.1304C78.5232 34.4908 76.7247 36.6498 74.0104 36.6498C73.3228 36.6858 72.639 36.5274 72.0373 36.1928C71.4356 35.8582 70.9403 35.3609 70.608 34.7579H70.5567V40.1141H68.337V25.7229H70.4855V27.5215H70.5263C70.8738 26.9214 71.3775 26.4267 71.9839 26.09C72.5902 25.7534 73.2764 25.5874 73.9696 25.6098C76.7142 25.6098 78.5232 27.7793 78.5232 31.1303V31.1304ZM76.2418 31.1304C76.2418 28.9411 75.1103 27.5017 73.3841 27.5017C71.688 27.5017 70.5473 28.9713 70.5473 31.1303C70.5473 33.3093 71.688 34.7685 73.3841 34.7685C75.1103 34.7685 76.2418 33.3396 76.2418 31.1303V31.1304ZM86.3896 32.4042C86.5541 33.875 87.983 34.8408 89.9355 34.8408C91.8064 34.8408 93.1525 33.875 93.1525 32.5487C93.1525 31.3974 92.3407 30.7081 90.4185 30.2357L88.4961 29.7726C85.7726 29.1148 84.5082 27.841 84.5082 25.7741C84.5082 23.215 86.7384 21.4573 89.9051 21.4573C93.0393 21.4573 95.1879 23.215 95.2602 25.7741H93.0194C92.8853 24.294 91.6618 23.4005 89.8736 23.4005C88.0856 23.4005 86.862 24.3045 86.862 25.6202C86.862 26.6688 87.6435 27.2859 89.5552 27.7582L91.1894 28.1595C94.2325 28.8791 95.497 30.1016 95.497 32.271C95.497 35.046 93.2866 36.784 89.771 36.784C86.4816 36.784 84.2608 35.0867 84.1174 32.404L86.3896 32.4042ZM100.287 23.1638V25.7229H102.344V27.4807H100.287V33.4422C100.287 34.3684 100.699 34.7999 101.603 34.7999C101.847 34.7957 102.091 34.7785 102.333 34.7486V36.496C101.927 36.5719 101.514 36.6062 101.1 36.5985C98.9111 36.5985 98.0572 35.7762 98.0572 33.679V27.4807H96.4849V25.7229H98.0572V23.1638H100.287ZM103.535 31.1304C103.535 27.7279 105.539 25.5899 108.664 25.5899C111.799 25.5899 113.793 27.7279 113.793 31.1304C113.793 34.5422 111.809 36.6708 108.663 36.6708C105.519 36.6708 103.535 34.5422 103.535 31.1304ZM111.532 31.1304C111.532 28.7965 110.462 27.4188 108.663 27.4188C106.865 27.4188 105.796 28.8068 105.796 31.1304C105.796 33.4738 106.865 34.8408 108.663 34.8408C110.462 34.8408 111.532 33.4738 111.532 31.1304ZM115.623 25.7229H117.741V27.5635H117.792C117.935 26.9886 118.272 26.4806 118.746 26.1248C119.219 25.769 119.801 25.5871 120.393 25.6098C120.649 25.6089 120.904 25.6366 121.154 25.6925V27.7688C120.831 27.6701 120.494 27.6248 120.156 27.6346C119.834 27.6216 119.512 27.6784 119.214 27.8013C118.915 27.9242 118.647 28.1102 118.427 28.3466C118.208 28.5829 118.042 28.864 117.941 29.1706C117.84 29.4772 117.807 29.802 117.843 30.1226V36.5367H115.623V25.7229ZM131.388 33.3605C131.089 35.3237 129.177 36.6708 126.731 36.6708C123.585 36.6708 121.633 34.5632 121.633 31.1817C121.633 27.7898 123.596 25.5899 126.638 25.5899C129.63 25.5899 131.511 27.6452 131.511 30.9239V31.6844H123.874V31.8185C123.838 32.2165 123.888 32.6175 124.02 32.9947C124.151 33.3719 124.362 33.7169 124.637 34.0066C124.912 34.2963 125.246 34.5241 125.616 34.675C125.985 34.8259 126.383 34.8963 126.783 34.8816C127.307 34.9308 127.834 34.8093 128.284 34.5352C128.733 34.2612 129.083 33.8492 129.28 33.3605H131.388ZM123.884 30.1331H129.29C129.31 29.7753 129.256 29.4172 129.131 29.0813C129.006 28.7454 128.813 28.439 128.564 28.1813C128.315 27.9235 128.015 27.7201 127.684 27.5837C127.352 27.4472 126.996 27.3808 126.638 27.3885C126.276 27.3863 125.918 27.4558 125.584 27.5929C125.249 27.7299 124.945 27.9318 124.689 28.187C124.433 28.4422 124.23 28.7455 124.092 29.0796C123.954 29.4136 123.883 29.7716 123.884 30.1331ZM45.9179 10.5402C46.3832 10.5068 46.8502 10.5771 47.2851 10.7461C47.72 10.915 48.112 11.1784 48.4328 11.5171C48.7536 11.8559 48.9952 12.2617 49.1402 12.7051C49.2852 13.1486 49.33 13.6187 49.2713 14.0815C49.2713 16.3583 48.0407 17.6672 45.9179 17.6672H43.3436V10.5401L45.9179 10.5402ZM44.4505 16.6592H45.7943C46.1268 16.6791 46.4595 16.6245 46.7683 16.4996C47.0771 16.3746 47.3542 16.1824 47.5793 15.9368C47.8044 15.6913 47.972 15.3987 48.0697 15.0802C48.1675 14.7618 48.1931 14.4256 48.1445 14.096C48.1895 13.7677 48.1614 13.4336 48.0621 13.1175C47.9629 12.8014 47.7949 12.5111 47.5703 12.2675C47.3457 12.024 47.07 11.8331 46.7629 11.7086C46.4559 11.5841 46.1251 11.529 45.7943 11.5474H44.4505V16.6592ZM50.5217 14.9756C50.4879 14.6221 50.5283 14.2655 50.6404 13.9286C50.7525 13.5917 50.9337 13.2819 51.1726 13.0192C51.4114 12.7564 51.7025 12.5465 52.0272 12.4028C52.3519 12.2592 52.703 12.1849 53.0581 12.1849C53.4131 12.1849 53.7643 12.2592 54.089 12.4028C54.4137 12.5465 54.7048 12.7564 54.9436 13.0192C55.1824 13.2819 55.3636 13.5917 55.4757 13.9286C55.5878 14.2655 55.6282 14.6221 55.5944 14.9756C55.6289 15.3294 55.5891 15.6866 55.4773 16.0241C55.3656 16.3617 55.1845 16.6721 54.9456 16.9354C54.7067 17.1988 54.4154 17.4092 54.0903 17.5532C53.7652 17.6972 53.4136 17.7716 53.0581 17.7716C52.7025 17.7716 52.3509 17.6972 52.0258 17.5532C51.7008 17.4092 51.4094 17.1988 51.1705 16.9354C50.9317 16.6721 50.7505 16.3617 50.6388 16.0241C50.5271 15.6866 50.4872 15.3294 50.5217 14.9756ZM54.5027 14.9756C54.5027 13.8097 53.979 13.1279 53.0599 13.1279C52.1372 13.1279 51.6182 13.8097 51.6182 14.9756C51.6182 16.1507 52.1373 16.8273 53.0599 16.8273C53.979 16.8273 54.5027 16.1461 54.5027 14.9756ZM62.3376 17.6671H61.2363L60.1248 13.7059H60.0408L58.934 17.6671H57.8433L56.3608 12.2886H57.4374L58.4009 16.3926H58.4802L59.586 12.2886H60.6042L61.71 16.3926H61.794L62.7527 12.2886H63.8142L62.3376 17.6671ZM65.0611 12.2887H66.0829V13.1431H66.1622C66.2967 12.8362 66.5237 12.5789 66.8114 12.4072C67.0991 12.2354 67.4332 12.1577 67.7672 12.1848C68.0289 12.1652 68.2917 12.2046 68.5361 12.3003C68.7804 12.396 69.0001 12.5454 69.1789 12.7375C69.3577 12.9296 69.491 13.1595 69.5689 13.4101C69.6467 13.6607 69.6672 13.9256 69.6288 14.1852V17.6669H68.5674V14.4518C68.5674 13.5875 68.1917 13.1577 67.4068 13.1577C67.2291 13.1494 67.0517 13.1797 66.8868 13.2463C66.7219 13.313 66.5734 13.4146 66.4514 13.544C66.3295 13.6735 66.2369 13.8278 66.1801 13.9963C66.1234 14.1649 66.1037 14.3437 66.1225 14.5206V17.6671H65.0611V12.2887ZM71.3201 10.1891H72.3815V17.6671H71.3201V10.1891ZM73.857 14.9756C73.8232 14.6221 73.8637 14.2654 73.9757 13.9285C74.0878 13.5915 74.2691 13.2817 74.508 13.0189C74.7468 12.7561 75.0379 12.5461 75.3627 12.4025C75.6874 12.2588 76.0386 12.1846 76.3937 12.1846C76.7488 12.1846 77.1 12.2588 77.4248 12.4025C77.7495 12.5461 78.0407 12.7561 78.2795 13.0189C78.5183 13.2817 78.6996 13.5915 78.8117 13.9285C78.9238 14.2654 78.9642 14.6221 78.9304 14.9756C78.9648 15.3294 78.9248 15.6865 78.8129 16.0239C78.7011 16.3613 78.5199 16.6716 78.281 16.9348C78.0421 17.1981 77.7508 17.4084 77.4258 17.5523C77.1007 17.6963 76.7492 17.7707 76.3937 17.7707C76.0383 17.7707 75.6867 17.6963 75.3617 17.5523C75.0367 17.4084 74.7453 17.1981 74.5065 16.9348C74.2676 16.6716 74.0864 16.3613 73.9745 16.0239C73.8627 15.6865 73.8227 15.3294 73.857 14.9756ZM77.838 14.9756C77.838 13.8097 77.3143 13.1279 76.3952 13.1279C75.4725 13.1279 74.9535 13.8097 74.9535 14.9756C74.9535 16.1507 75.4726 16.8273 76.3952 16.8273C77.3143 16.8273 77.838 16.1461 77.838 14.9756ZM80.0478 16.1461C80.0478 15.1779 80.7686 14.6198 82.0482 14.5404L83.505 14.4565V13.9922C83.505 13.4241 83.1295 13.1034 82.404 13.1034C81.8115 13.1034 81.4008 13.3209 81.2831 13.7012H80.2554C80.3638 12.7774 81.2329 12.1849 82.453 12.1849C83.8013 12.1849 84.5618 12.8562 84.5618 13.9922V17.6671H83.54V16.9112H83.456C83.2856 17.1823 83.0462 17.4034 82.7624 17.5517C82.4786 17.7001 82.1605 17.7705 81.8406 17.7557C81.6148 17.7792 81.3866 17.7551 81.1707 17.685C80.9548 17.6148 80.756 17.5003 80.5871 17.3486C80.4182 17.197 80.2829 17.0116 80.19 16.8045C80.0972 16.5974 80.0487 16.3731 80.0478 16.1461ZM83.505 15.6865V15.2368L82.1916 15.3207C81.451 15.3703 81.115 15.6223 81.115 16.0964C81.115 16.5805 81.535 16.8623 82.1123 16.8623C82.2815 16.8794 82.4524 16.8623 82.6149 16.812C82.7773 16.7618 82.928 16.6793 83.0579 16.5696C83.1879 16.4599 83.2944 16.3252 83.3712 16.1735C83.448 16.0218 83.4935 15.8561 83.505 15.6865ZM85.9569 14.9756C85.9569 13.276 86.8305 12.1995 88.1894 12.1995C88.5255 12.184 88.8591 12.2645 89.1512 12.4316C89.4433 12.5987 89.6817 12.8455 89.8387 13.1431H89.918V10.189H90.9794V17.6669H89.9623V16.8171H89.8784C89.7093 17.1127 89.4625 17.3564 89.1648 17.5218C88.8671 17.6873 88.5298 17.7681 88.1895 17.7556C86.8212 17.7556 85.9569 16.6789 85.9569 14.9754V14.9756ZM87.0534 14.9756C87.0534 16.1162 87.5911 16.8028 88.4902 16.8028C89.3849 16.8028 89.9379 16.1064 89.9379 14.9801C89.9379 13.8593 89.3791 13.153 88.4902 13.153C87.5968 13.153 87.0534 13.8441 87.0534 14.9756ZM95.371 14.9756C95.3372 14.6221 95.3776 14.2655 95.4897 13.9286C95.6018 13.5917 95.783 13.2819 96.0218 13.0192C96.2606 12.7564 96.5517 12.5465 96.8764 12.4028C97.2011 12.2592 97.5523 12.1849 97.9073 12.1849C98.2624 12.1849 98.6135 12.2592 98.9382 12.4028C99.2629 12.5465 99.554 12.7564 99.7928 13.0192C100.032 13.2819 100.213 13.5917 100.325 13.9286C100.437 14.2655 100.477 14.6221 100.444 14.9756C100.478 15.3294 100.438 15.6866 100.327 16.0241C100.215 16.3617 100.034 16.6721 99.7949 16.9354C99.556 17.1988 99.2646 17.4092 98.9396 17.5532C98.6145 17.6972 98.2629 17.7716 97.9073 17.7716C97.5518 17.7716 97.2002 17.6972 96.8751 17.5532C96.55 17.4092 96.2587 17.1988 96.0198 16.9354C95.7809 16.6721 95.5998 16.3617 95.4881 16.0241C95.3763 15.6866 95.3364 15.3294 95.371 14.9756ZM99.352 14.9756C99.352 13.8097 98.8282 13.1279 97.9091 13.1279C96.9865 13.1279 96.4675 13.8097 96.4675 14.9756C96.4675 16.1507 96.9866 16.8273 97.9091 16.8273C98.8282 16.8273 99.352 16.1461 99.352 14.9756ZM101.868 12.2887H102.89V13.1431H102.969C103.104 12.8362 103.331 12.5789 103.618 12.4072C103.906 12.2354 104.24 12.1577 104.574 12.1848C104.836 12.1652 105.099 12.2046 105.343 12.3003C105.587 12.396 105.807 12.5454 105.986 12.7375C106.165 12.9296 106.298 13.1595 106.376 13.4101C106.454 13.6607 106.474 13.9256 106.436 14.1852V17.6669H105.374V14.4518C105.374 13.5875 104.999 13.1577 104.214 13.1577C104.036 13.1494 103.859 13.1797 103.694 13.2463C103.529 13.313 103.38 13.4146 103.258 13.544C103.136 13.6735 103.044 13.8278 102.987 13.9963C102.93 14.1649 102.911 14.3437 102.929 14.5206V17.6671H101.868L101.868 12.2887ZM112.433 10.9497V12.3132H113.599V13.2072H112.433V15.9728C112.433 16.5362 112.665 16.7829 113.194 16.7829C113.329 16.7825 113.464 16.7743 113.599 16.7583V17.6426C113.408 17.6767 113.215 17.6948 113.021 17.6968C111.841 17.6968 111.371 17.2815 111.371 16.2446V13.2072H110.517V12.3131H111.371V10.9498L112.433 10.9497ZM115.048 10.1891H116.101V13.153H116.185C116.326 12.8433 116.559 12.5846 116.852 12.4121C117.146 12.2397 117.485 12.162 117.824 12.1895C118.085 12.1753 118.345 12.2188 118.587 12.3168C118.828 12.4148 119.045 12.5649 119.222 12.7564C119.399 12.9479 119.532 13.1761 119.61 13.4248C119.689 13.6734 119.712 13.9363 119.677 14.1947V17.6671H118.614V14.4565C118.614 13.5973 118.214 13.1623 117.464 13.1623C117.282 13.1474 117.098 13.1725 116.926 13.2358C116.755 13.2992 116.599 13.3993 116.47 13.5292C116.341 13.6591 116.242 13.8156 116.18 13.9877C116.118 14.1599 116.094 14.3435 116.11 14.5259V17.6671H115.048V10.1891ZM125.866 16.2148C125.722 16.7063 125.409 17.1316 124.983 17.416C124.557 17.7005 124.045 17.8261 123.535 17.7708C123.181 17.7802 122.829 17.7123 122.503 17.572C122.178 17.4316 121.887 17.2221 121.65 16.9579C121.414 16.6938 121.238 16.3814 121.134 16.0424C121.031 15.7034 121.002 15.3459 121.051 14.9948C121.004 14.6426 121.033 14.2843 121.136 13.9443C121.239 13.6043 121.414 13.2904 121.65 13.0239C121.885 12.7575 122.174 12.5447 122.499 12.3999C122.823 12.2551 123.175 12.1818 123.531 12.1848C125.027 12.1848 125.93 13.2072 125.93 14.8961V15.2665H122.132V15.326C122.116 15.5234 122.14 15.722 122.205 15.9093C122.27 16.0965 122.373 16.2681 122.508 16.4132C122.642 16.5583 122.806 16.6736 122.988 16.7517C123.17 16.8298 123.366 16.869 123.564 16.8668C123.818 16.8973 124.076 16.8516 124.303 16.7355C124.531 16.6194 124.719 16.4381 124.844 16.2148H125.866ZM122.132 14.4816H124.849C124.862 14.3011 124.838 14.1197 124.777 13.9493C124.716 13.7788 124.62 13.623 124.495 13.4918C124.371 13.3605 124.22 13.2569 124.053 13.1874C123.886 13.1179 123.706 13.0841 123.525 13.0883C123.341 13.086 123.159 13.1204 122.989 13.1896C122.819 13.2588 122.664 13.3614 122.535 13.4912C122.405 13.6211 122.302 13.7756 122.233 13.9457C122.164 14.1158 122.13 14.298 122.132 14.4816Z" fill="white"/>
</g>
<defs>
<clipPath id="clip0_1146_9079">
<rect width="143.071" height="48" fill="white" transform="translate(0.666504)"/>
</clipPath>
</defs>
</svg>
