<svg width="197" height="128" viewBox="0 0 197 128" fill="none" xmlns="http://www.w3.org/2000/svg">
<path d="M192.654 114.848L44.4922 106.656C41.7918 106.514 39.2851 104.46 38.8846 102.057L30.8996 16.1728C30.4991 13.7566 32.295 11.7797 34.9309 11.7668L173.273 11.741C175.909 11.7539 178.467 13.9116 178.958 16.5475L196.659 110.403C197.163 113.026 195.367 115.016 192.654 114.848Z" fill="#9363D1"/>
<path d="M148.841 127.989L4.14211 118.75C1.50628 118.595 -0.134649 116.269 0.485545 113.569L28.7948 16.7413C29.415 14.015 32.0508 11.7926 34.6866 11.7797L173.042 11.741C175.677 11.7539 177.318 14.183 176.698 17.1547L154.733 122.975C154.113 125.947 151.477 128.182 148.841 127.989Z" fill="#894FD5"/>
<path d="M141.463 114.951L11.8682 106.914C9.40034 106.772 7.86277 104.757 8.44421 102.405L29.0269 18.2268C29.6083 15.8623 32.0762 13.9242 34.544 13.9113L164.139 13.8854C166.607 13.8984 168.144 16.0044 167.563 18.6015L146.98 110.597C146.399 113.168 143.931 115.119 141.463 114.951Z" fill="white"/>
<path d="M141.463 114.951L11.8682 106.914C9.40034 106.772 7.86277 104.757 8.44421 102.405L29.0269 18.2268C29.6083 15.8623 32.0762 13.9242 34.544 13.9113L164.139 13.8854C166.607 13.8984 168.144 16.0044 167.563 18.6015L146.98 110.597C146.399 113.168 143.931 115.119 141.463 114.951Z" fill="#DFDFDF"/>
<mask id="mask0_19776_189278" style="mask-type:luminance" maskUnits="userSpaceOnUse" x="0" y="7" width="162" height="98">
<path d="M135.687 104.188L4.08994 98.064C0.963132 97.8444 -0.936209 94.5109 0.472147 91.7071C0.588433 91.4874 0.665958 91.3324 0.70472 91.2548C7.50101 78.9802 13.1474 65.8527 17.4241 52.5057C21.6104 39.417 25.5125 25.7986 25.6288 11.9346C25.6417 9.49264 27.6573 7.54161 30.0993 7.59329L157.433 9.33758C159.978 9.38927 161.955 11.5858 161.723 14.1182C160.521 27.349 158.466 41.0191 155.404 53.9528C152.497 66.292 148.285 78.2824 144.28 90.2987C143.026 94.0586 141.553 97.8056 140.029 101.501C139.331 103.219 137.574 104.318 135.687 104.188Z" fill="white"/>
</mask>
<g mask="url(#mask0_19776_189278)">
<path d="M135.687 104.188L4.08994 98.064C0.963132 97.8444 -0.936209 94.5109 0.472147 91.7071C0.588433 91.4874 0.665958 91.3324 0.70472 91.2548C7.50101 78.9802 13.1474 65.8527 17.4241 52.5057C21.6104 39.417 25.5125 25.7986 25.6288 11.9346C25.6417 9.49264 27.6573 7.54161 30.0993 7.59329L157.433 9.33758C159.978 9.38927 161.955 11.5858 161.723 14.1182C160.521 27.349 158.466 41.0191 155.404 53.9528C152.497 66.292 148.285 78.2824 144.28 90.2987C143.026 94.0586 141.553 97.8056 140.029 101.501C139.331 103.219 137.574 104.318 135.687 104.188Z" fill="#F3F8FB"/>
</g>
<mask id="mask1_19776_189278" style="mask-type:luminance" maskUnits="userSpaceOnUse" x="0" y="7" width="162" height="98">
<path d="M135.687 104.188L4.08994 98.064C0.963132 97.8444 -0.936209 94.5109 0.472147 91.7071C0.588433 91.4874 0.665958 91.3324 0.70472 91.2548C7.50101 78.9802 13.1474 65.8527 17.4241 52.5057C21.6104 39.417 25.5125 25.7986 25.6288 11.9346C25.6417 9.49264 27.6573 7.54161 30.0993 7.59329L157.433 9.33758C159.978 9.38927 161.955 11.5858 161.723 14.1182C160.521 27.349 158.466 41.0191 155.404 53.9528C152.497 66.292 148.285 78.2824 144.28 90.2987C143.026 94.0586 141.553 97.8056 140.029 101.501C139.331 103.219 137.574 104.318 135.687 104.188Z" fill="white"/>
</mask>
<g mask="url(#mask1_19776_189278)">
<path d="M135.687 104.188L4.08994 98.064C0.963132 97.8444 -0.936209 94.5109 0.472147 91.7071C0.588433 91.4874 0.665958 91.3324 0.70472 91.2548C7.50101 78.9802 13.1474 65.8527 17.4241 52.5057C21.6104 39.417 25.5125 25.7986 25.6288 11.9346C25.6417 9.49264 27.6573 7.54161 30.0993 7.59329L157.433 9.33758C159.978 9.38927 161.955 11.5858 161.723 14.1182C160.521 27.349 158.466 41.0191 155.404 53.9528C152.497 66.292 148.285 78.2824 144.28 90.2987C143.026 94.0586 141.553 97.8056 140.029 101.501C139.331 103.219 137.574 104.318 135.687 104.188Z" fill="#F3F8FB"/>
</g>
<path d="M54.1835 41.5873C50.7078 41.471 47.2451 41.3676 43.7694 41.2513C42.1156 41.1997 41.0044 39.9722 41.2757 38.5121C41.8442 35.4499 42.3223 32.3877 42.7228 29.3514C42.9167 27.8913 44.3896 26.7543 46.0564 26.8189C49.532 26.9352 53.0206 27.0386 56.4963 27.1548C58.1631 27.2065 59.3647 28.434 59.1709 29.8811C58.7574 32.9304 58.2664 35.9926 57.6979 39.0548C57.4266 40.5019 55.8374 41.639 54.1835 41.5873ZM84.1466 39.8817C84.741 36.8195 85.2449 33.7573 85.6713 30.708C85.878 29.248 84.6764 28.0335 83.0096 27.9818C79.5339 27.8655 76.0453 27.7621 72.5697 27.6458C70.9029 27.5942 69.417 28.7312 69.2232 30.1912C68.8097 33.2405 68.3058 36.3027 67.7244 39.3649C67.4531 40.825 68.5384 42.0524 70.2052 42.117C73.6808 42.2333 77.1436 42.3367 80.6193 42.453C82.2731 42.4917 83.8624 41.3418 84.1466 39.8817ZM110.582 40.7345C111.19 37.6723 111.719 34.6101 112.159 31.5608C112.365 30.1008 111.177 28.8862 109.51 28.8216C106.034 28.7053 102.546 28.602 99.07 28.4857C97.4033 28.434 95.9174 29.571 95.7106 31.0311C95.2843 34.0803 94.7674 37.1426 94.1731 40.2048C93.8888 41.6648 94.9742 42.8923 96.6409 42.9569C100.117 43.0732 103.579 43.1765 107.055 43.2928C108.696 43.3445 110.298 42.1945 110.582 40.7345ZM137.018 41.5873C137.638 38.5251 138.181 35.4629 138.633 32.4136C138.853 30.9535 137.664 29.7261 135.997 29.6744C132.522 29.5581 129.033 29.4547 125.557 29.3384C123.891 29.2868 122.392 30.4238 122.185 31.8838C121.733 34.9331 121.203 37.9953 120.596 41.0575C120.299 42.5176 121.384 43.7579 123.051 43.8096C126.527 43.9259 129.989 44.0293 133.465 44.1456C135.119 44.1843 136.721 43.0473 137.018 41.5873ZM48.4467 62.5705C44.984 62.4542 41.5212 62.3508 38.0714 62.2346C36.4175 62.1829 35.4485 60.9554 35.8749 59.4954C36.7793 56.4332 37.5933 53.371 38.3298 50.3346C38.6787 48.8745 40.2808 47.7504 41.9476 47.8021C45.4233 47.9184 48.886 48.0218 52.3617 48.1381C54.0155 48.1897 55.1009 49.4172 54.7391 50.8643C54.0026 53.9136 53.1757 56.9758 52.2583 60.038C51.8061 61.4851 50.1006 62.6222 48.4467 62.5705ZM78.5907 60.865C79.521 57.8028 80.3609 54.7405 81.1103 51.6913C81.472 50.2312 80.3996 49.0167 78.7458 48.965C75.283 48.8487 71.8073 48.7453 68.3317 48.6291C66.6778 48.5774 65.0627 49.7144 64.701 51.1744C63.9516 54.2237 63.1246 57.2859 62.2073 60.3481C61.768 61.8082 62.737 63.0356 64.3909 63.1002C67.8536 63.2165 71.3164 63.3199 74.7662 63.4362C76.433 63.4749 78.1514 62.3379 78.5907 60.865ZM104.936 61.7177C105.879 58.6555 106.732 55.5933 107.507 52.544C107.882 51.084 106.81 49.8694 105.156 49.8048C101.693 49.6886 98.2173 49.5852 94.7545 49.4689C93.1007 49.4172 91.4856 50.5542 91.1109 52.0143C90.3485 55.0636 89.4958 58.1258 88.5655 61.188C88.1262 62.648 89.0823 63.8755 90.7233 63.9401C94.186 64.0564 97.6358 64.1597 101.099 64.276C102.765 64.3277 104.497 63.1778 104.936 61.7177ZM131.281 62.5705C132.237 59.5083 133.116 56.4461 133.904 53.3968C134.279 51.9368 133.219 50.7093 131.566 50.6576C128.103 50.5413 124.627 50.438 121.164 50.3217C119.511 50.27 117.883 51.407 117.508 52.867C116.733 55.9163 115.867 58.9785 114.924 62.0407C114.472 63.5008 115.428 64.7412 117.069 64.7929C120.531 64.9091 123.981 65.0125 127.444 65.1288C129.098 65.1805 130.829 64.0305 131.281 62.5705ZM40.7847 83.2178C37.3349 83.1015 33.8851 82.9981 30.4353 82.8818C28.7943 82.8302 27.9416 81.6027 28.5359 80.1427C29.7505 77.0805 30.8875 74.0182 31.947 70.9819C32.4509 69.5218 34.1693 68.3848 35.8232 68.4494C39.2859 68.5657 42.7358 68.6691 46.1985 68.7854C47.8524 68.837 48.7956 70.0645 48.2917 71.5116C47.2322 74.5609 46.0822 77.6231 44.8548 80.6853C44.2733 82.1324 42.4386 83.2824 40.7847 83.2178ZM71.1225 81.5252C72.3629 78.463 73.5258 75.4008 74.6111 72.3515C75.128 70.8914 74.1848 69.6769 72.5309 69.6252C69.0682 69.5089 65.6183 69.4056 62.1556 69.2893C60.5017 69.2376 58.7704 70.3746 58.2664 71.8346C57.194 74.8839 56.0441 77.9461 54.8166 81.0083C54.2223 82.4684 55.0621 83.6959 56.703 83.7605C60.1529 83.8767 63.6027 83.9801 67.0525 84.0964C68.6805 84.1222 70.5282 82.9852 71.1225 81.5252ZM97.3774 82.365C98.6436 79.3028 99.8194 76.2406 100.905 73.1913C101.422 71.7313 100.491 70.5167 98.8374 70.4521C95.3747 70.3358 91.9249 70.2325 88.4621 70.1162C86.8083 70.0645 85.0769 71.2015 84.5601 72.6616C83.4747 75.7109 82.3119 78.7731 81.0586 81.8353C80.4642 83.2953 81.2911 84.5228 82.9321 84.5874C86.3819 84.7037 89.8317 84.807 93.2686 84.9233C94.9354 84.975 96.7831 83.838 97.3774 82.365ZM123.632 83.2178C124.911 80.1556 126.1 77.0934 127.211 74.0441C127.741 72.584 126.811 71.3566 125.157 71.3049C121.694 71.1886 118.244 71.0852 114.782 70.969C113.128 70.9173 111.383 72.0543 110.867 73.5143C109.768 76.5636 108.58 79.6258 107.313 82.688C106.706 84.1481 107.533 85.3885 109.174 85.4401C112.624 85.5564 116.074 85.6598 119.511 85.7761C121.177 85.8278 123.025 84.6778 123.632 83.2178Z" fill="#9AA7B3"/>
<path d="M44.5075 9.55703C44.8693 9.02728 45.1923 8.44585 45.5412 7.87734C45.6704 7.65769 45.7996 7.45096 45.89 7.20546C45.9417 7.06333 45.9676 6.90829 46.058 6.77908C46.2906 6.44314 46.7686 6.43022 47.1692 6.46898C48.7843 6.63695 49.2494 7.5414 49.1848 9.09189C49.0685 11.7536 48.0349 14.3248 46.1226 16.1854C44.598 17.6712 42.7245 18.4723 40.5926 18.4465C40.192 18.4465 39.7785 18.4077 39.4168 18.2397C38.6803 17.9038 38.2539 17.0769 38.2539 16.2758C38.2539 13.3686 41.4195 12.3221 43.293 10.8879C43.784 10.5002 44.1716 10.048 44.5075 9.55703Z" fill="url(#paint0_radial_19776_189278)"/>
<path d="M48.9649 6.8566C48.8745 6.44314 48.7711 6.02968 48.6548 5.62914C48.4352 4.87974 48.1639 4.14326 47.815 3.44554C47.2336 2.2956 46.4325 1.18442 45.2825 0.538385C44.559 0.137843 43.7321 -0.0430514 42.9051 0.00863144C39.7266 0.189521 37.7368 3.36802 37.1296 7.67061C36.9487 8.89808 36.897 10.216 36.9487 11.5727C37.0004 12.7484 37.1425 13.9242 37.4009 15.0612C37.7239 16.4567 38.1891 18.9891 40.1789 18.6144C41.3546 18.3948 41.3805 16.9089 40.9541 16.0303C40.5923 15.268 40.1401 14.6736 39.9592 13.8338C39.7912 13.0456 39.7654 12.2445 39.7912 11.4435C39.8429 10.2031 39.9721 8.89808 40.2047 7.70937C40.6828 5.31904 41.5614 3.38094 42.9827 3.34218C43.9 3.31634 44.4815 4.00113 44.8303 4.77637C45.05 5.28028 45.1921 5.81003 45.2955 6.3527C45.3859 6.792 45.3859 7.25714 45.4893 7.69645C45.5022 7.73521 45.5022 7.76105 45.5151 7.7869L49.1975 7.83858C49.2104 7.52848 49.0166 7.1021 48.9649 6.8566Z" fill="#6945A9"/>
<path d="M48.9649 6.8566C48.8745 6.44314 48.7711 6.02968 48.6548 5.62914C48.4352 4.87974 48.1639 4.14326 47.815 3.44554C47.2336 2.2956 46.4325 1.18442 45.2825 0.538385C44.559 0.137843 43.7321 -0.0430514 42.9051 0.00863144C39.7266 0.189521 37.7368 3.36802 37.1296 7.67061C36.9487 8.89808 36.897 10.216 36.9487 11.5727C37.0004 12.7484 37.1425 13.9242 37.4009 15.0612C37.7239 16.4567 38.1891 18.9891 40.1789 18.6144C41.3546 18.3948 41.3805 16.9089 40.9541 16.0303C40.5923 15.268 40.1401 14.6736 39.9592 13.8338C39.7912 13.0456 39.7654 12.2445 39.7912 11.4435C39.8429 10.2031 39.9721 8.89808 40.2047 7.70937C40.6828 5.31904 41.5614 3.38094 42.9827 3.34218C43.9 3.31634 44.4815 4.00113 44.8303 4.77637C45.05 5.28028 45.1921 5.81003 45.2955 6.3527C45.3859 6.792 45.3859 7.25714 45.4893 7.69645C45.5022 7.73521 45.5022 7.76105 45.5151 7.7869L49.1975 7.83858C49.2104 7.52848 49.0166 7.1021 48.9649 6.8566Z" fill="#6125E5"/>
<path d="M48.9649 6.8566C48.8745 6.44314 48.7711 6.02968 48.6548 5.62914C48.4352 4.87974 48.1639 4.14326 47.815 3.44554C47.2336 2.2956 46.4325 1.18442 45.2825 0.538385C44.559 0.137843 43.7321 -0.0430514 42.9051 0.00863144C39.7266 0.189521 37.7368 3.36802 37.1296 7.67061C36.9487 8.89808 36.897 10.216 36.9487 11.5727C37.0004 12.7484 37.1425 13.9242 37.4009 15.0612C37.7239 16.4567 38.1891 18.9891 40.1789 18.6144C41.3546 18.3948 41.3805 16.9089 40.9541 16.0303C40.5923 15.268 40.1401 14.6736 39.9592 13.8338C39.7912 13.0456 39.7654 12.2445 39.7912 11.4435C39.8429 10.2031 39.9721 8.89808 40.2047 7.70937C40.6828 5.31904 41.5614 3.38094 42.9827 3.34218C43.9 3.31634 44.4815 4.00113 44.8303 4.77637C45.05 5.28028 45.1921 5.81003 45.2955 6.3527C45.3859 6.792 45.3859 7.25714 45.4893 7.69645C45.5022 7.73521 45.5022 7.76105 45.5151 7.7869L49.1975 7.83858C49.2104 7.52848 49.0166 7.1021 48.9649 6.8566Z" fill="#A389F0"/>
<path d="M70.2448 9.86764C70.6066 9.33789 70.9296 8.75646 71.2785 8.18795C71.4077 7.9683 71.5369 7.76156 71.6273 7.51607C71.679 7.37394 71.7049 7.2189 71.7953 7.08969C72.0279 6.75375 72.506 6.74083 72.9065 6.77959C74.5216 6.94756 74.9867 7.852 74.9221 9.40249C74.8058 12.0642 73.7722 14.6354 71.8599 16.496C70.3353 17.9818 68.4618 18.7829 66.3299 18.7571C65.9293 18.7571 65.5159 18.7183 65.1541 18.5503C64.4176 18.2144 63.9912 17.3875 63.9912 16.5864C63.9912 13.6792 67.1568 12.6327 69.0303 11.1985C69.5213 10.8108 69.9089 10.3586 70.2448 9.86764Z" fill="url(#paint1_radial_19776_189278)"/>
<path d="M74.7159 7.16721C74.6255 6.75375 74.5221 6.34029 74.4058 5.93974C74.1862 5.19034 73.9148 4.45386 73.566 3.75614C72.9845 2.6062 72.1835 1.49502 71.0335 0.848985C70.31 0.448444 69.483 0.267557 68.6561 0.31924C65.4776 0.500129 63.4878 3.67862 62.8805 7.98121C62.6997 9.20868 62.648 10.5266 62.6997 11.8833C62.7513 13.0591 62.8935 14.2348 63.1519 15.3719C63.4749 16.7673 63.94 19.2997 65.9298 18.925C67.1056 18.7054 67.1315 17.2195 66.7051 16.3409C66.3433 15.5786 65.8911 14.9842 65.7102 14.1444C65.5422 13.3562 65.5164 12.5551 65.5422 11.7541C65.5939 10.5137 65.7231 9.20868 65.9557 8.01997C66.4337 5.62964 67.3123 3.69154 68.7336 3.65278C69.651 3.62694 70.2324 4.31174 70.5813 5.08698C70.8009 5.59089 70.9431 6.12063 71.0464 6.6633C71.1369 7.1026 71.1369 7.56775 71.2402 8.00706C71.2532 8.04582 71.2532 8.07166 71.2661 8.0975L74.9485 8.14918C74.9485 7.83909 74.7676 7.42563 74.7159 7.16721Z" fill="#6945A9"/>
<path d="M74.7159 7.16721C74.6255 6.75375 74.5221 6.34029 74.4058 5.93974C74.1862 5.19034 73.9148 4.45386 73.566 3.75614C72.9845 2.6062 72.1835 1.49502 71.0335 0.848985C70.31 0.448444 69.483 0.267557 68.6561 0.31924C65.4776 0.500129 63.4878 3.67862 62.8805 7.98121C62.6997 9.20868 62.648 10.5266 62.6997 11.8833C62.7513 13.0591 62.8935 14.2348 63.1519 15.3719C63.4749 16.7673 63.94 19.2997 65.9298 18.925C67.1056 18.7054 67.1315 17.2195 66.7051 16.3409C66.3433 15.5786 65.8911 14.9842 65.7102 14.1444C65.5422 13.3562 65.5164 12.5551 65.5422 11.7541C65.5939 10.5137 65.7231 9.20868 65.9557 8.01997C66.4337 5.62964 67.3123 3.69154 68.7336 3.65278C69.651 3.62694 70.2324 4.31174 70.5813 5.08698C70.8009 5.59089 70.9431 6.12063 71.0464 6.6633C71.1369 7.1026 71.1369 7.56775 71.2402 8.00706C71.2532 8.04582 71.2532 8.07166 71.2661 8.0975L74.9485 8.14918C74.9485 7.83909 74.7676 7.42563 74.7159 7.16721Z" fill="#6125E5"/>
<path d="M74.7159 7.16721C74.6255 6.75375 74.5221 6.34029 74.4058 5.93974C74.1862 5.19034 73.9148 4.45386 73.566 3.75614C72.9845 2.6062 72.1835 1.49502 71.0335 0.848985C70.31 0.448444 69.483 0.267557 68.6561 0.31924C65.4776 0.500129 63.4878 3.67862 62.8805 7.98121C62.6997 9.20868 62.648 10.5266 62.6997 11.8833C62.7513 13.0591 62.8935 14.2348 63.1519 15.3719C63.4749 16.7673 63.94 19.2997 65.9298 18.925C67.1056 18.7054 67.1315 17.2195 66.7051 16.3409C66.3433 15.5786 65.8911 14.9842 65.7102 14.1444C65.5422 13.3562 65.5164 12.5551 65.5422 11.7541C65.5939 10.5137 65.7231 9.20868 65.9557 8.01997C66.4337 5.62964 67.3123 3.69154 68.7336 3.65278C69.651 3.62694 70.2324 4.31174 70.5813 5.08698C70.8009 5.59089 70.9431 6.12063 71.0464 6.6633C71.1369 7.1026 71.1369 7.56775 71.2402 8.00706C71.2532 8.04582 71.2532 8.07166 71.2661 8.0975L74.9485 8.14918C74.9485 7.83909 74.7676 7.42563 74.7159 7.16721Z" fill="#A389F0"/>
<path d="M95.9812 10.1905C96.3429 9.66071 96.666 9.07927 97.0148 8.51076C97.144 8.29111 97.2732 8.08438 97.3637 7.83888C97.4154 7.69676 97.4412 7.54171 97.5316 7.4125C97.7642 7.07656 98.2423 7.06364 98.6428 7.1024C100.258 7.27037 100.723 8.17482 100.658 9.7253C100.542 12.387 99.5085 14.9582 97.5962 16.8188C96.0716 18.3047 94.1981 19.1057 92.0662 19.0799C91.6656 19.0799 91.2522 19.0411 90.8904 18.8732C90.1539 18.5372 89.7275 17.7103 89.7275 16.9092C89.7275 14.0021 92.8931 12.9555 94.7666 11.5213C95.2705 11.1207 95.6452 10.6685 95.9812 10.1905Z" fill="url(#paint2_radial_19776_189278)"/>
<path d="M100.452 7.49045C100.362 7.07699 100.258 6.66353 100.142 6.26299C99.9225 5.51359 99.6512 4.7771 99.3023 4.07939C98.7209 2.92944 97.9198 1.81826 96.7698 1.17223C96.0463 0.771686 95.2194 0.590799 94.3924 0.642482C91.2139 0.823372 89.2242 4.00186 88.6169 8.30446C88.436 9.53192 88.3843 10.8498 88.436 12.2065C88.4877 13.3823 88.6298 14.5581 88.8882 15.6951C89.2112 17.0905 89.6764 19.623 91.6662 19.2483C92.8419 19.0286 92.8678 17.5428 92.4414 16.6642C92.0796 15.9018 91.6274 15.3075 91.4465 14.4676C91.2785 13.6795 91.2527 12.8784 91.2785 12.0773C91.3302 10.8369 91.4594 9.53192 91.692 8.34322C92.1701 5.95289 93.0487 4.01478 94.47 3.97602C95.3873 3.95018 95.9688 4.63498 96.3176 5.41022C96.5373 5.91413 96.6794 6.44387 96.7828 6.98654C96.8732 7.42585 96.8732 7.891 96.9766 8.3303C96.9895 8.36906 96.9895 8.3949 97.0024 8.42075L100.685 8.47242C100.698 8.14941 100.504 7.73595 100.452 7.49045Z" fill="#6945A9"/>
<path d="M100.452 7.49045C100.362 7.07699 100.258 6.66353 100.142 6.26299C99.9225 5.51359 99.6512 4.7771 99.3023 4.07939C98.7209 2.92944 97.9198 1.81826 96.7698 1.17223C96.0463 0.771686 95.2194 0.590799 94.3924 0.642482C91.2139 0.823372 89.2242 4.00186 88.6169 8.30446C88.436 9.53192 88.3843 10.8498 88.436 12.2065C88.4877 13.3823 88.6298 14.5581 88.8882 15.6951C89.2112 17.0905 89.6764 19.623 91.6662 19.2483C92.8419 19.0286 92.8678 17.5428 92.4414 16.6642C92.0796 15.9018 91.6274 15.3075 91.4465 14.4676C91.2785 13.6795 91.2527 12.8784 91.2785 12.0773C91.3302 10.8369 91.4594 9.53192 91.692 8.34322C92.1701 5.95289 93.0487 4.01478 94.47 3.97602C95.3873 3.95018 95.9688 4.63498 96.3176 5.41022C96.5373 5.91413 96.6794 6.44387 96.7828 6.98654C96.8732 7.42585 96.8732 7.891 96.9766 8.3303C96.9895 8.36906 96.9895 8.3949 97.0024 8.42075L100.685 8.47242C100.698 8.14941 100.504 7.73595 100.452 7.49045Z" fill="#6125E5"/>
<path d="M100.452 7.49045C100.362 7.07699 100.258 6.66353 100.142 6.26299C99.9225 5.51359 99.6512 4.7771 99.3023 4.07939C98.7209 2.92944 97.9198 1.81826 96.7698 1.17223C96.0463 0.771686 95.2194 0.590799 94.3924 0.642482C91.2139 0.823372 89.2242 4.00186 88.6169 8.30446C88.436 9.53192 88.3843 10.8498 88.436 12.2065C88.4877 13.3823 88.6298 14.5581 88.8882 15.6951C89.2112 17.0905 89.6764 19.623 91.6662 19.2483C92.8419 19.0286 92.8678 17.5428 92.4414 16.6642C92.0796 15.9018 91.6274 15.3075 91.4465 14.4676C91.2785 13.6795 91.2527 12.8784 91.2785 12.0773C91.3302 10.8369 91.4594 9.53192 91.692 8.34322C92.1701 5.95289 93.0487 4.01478 94.47 3.97602C95.3873 3.95018 95.9688 4.63498 96.3176 5.41022C96.5373 5.91413 96.6794 6.44387 96.7828 6.98654C96.8732 7.42585 96.8732 7.891 96.9766 8.3303C96.9895 8.36906 96.9895 8.3949 97.0024 8.42075L100.685 8.47242C100.698 8.14941 100.504 7.73595 100.452 7.49045Z" fill="#A389F0"/>
<path d="M121.735 10.5651C122.097 10.0353 122.42 9.4539 122.769 8.88539C122.898 8.66574 123.027 8.459 123.118 8.21351C123.169 8.07138 123.195 7.91634 123.286 7.78713C123.518 7.45119 123.996 7.43828 124.397 7.47704C126.012 7.64501 126.477 8.54945 126.412 10.0999C126.296 12.7616 125.262 15.3328 123.35 17.1934C121.826 18.6793 119.952 19.4804 117.82 19.4545C117.42 19.4545 117.006 19.4158 116.644 19.2478C115.908 18.9119 115.481 18.0849 115.481 17.2838C115.481 14.3767 118.647 13.3301 120.521 11.8959C121.012 11.5083 121.399 11.0561 121.735 10.5651Z" fill="url(#paint3_radial_19776_189278)"/>
<path d="M126.192 7.86466C126.102 7.4512 125.999 7.03774 125.882 6.63719C125.663 5.88779 125.391 5.15131 125.043 4.45359C124.461 3.30365 123.66 2.19247 122.51 1.54643C121.787 1.14589 120.96 0.965006 120.133 1.01669C116.954 1.19758 114.964 4.37607 114.357 8.67866C114.176 9.90613 114.125 11.224 114.176 12.5807C114.228 13.7565 114.37 14.9323 114.628 16.0693C114.951 17.4647 115.417 19.9972 117.406 19.6225C118.582 19.4028 118.608 17.917 118.182 17.0384C117.82 16.276 117.368 15.6817 117.187 14.8418C117.019 14.0537 116.993 13.2526 117.019 12.4515C117.07 11.2111 117.2 9.90613 117.432 8.71742C117.91 6.32709 118.789 4.38899 120.21 4.35023C121.128 4.32439 121.709 5.00918 122.058 5.78442C122.278 6.28833 122.42 6.81808 122.523 7.36075C122.613 7.80005 122.613 8.2652 122.717 8.70451C122.73 8.74327 122.73 8.7691 122.743 8.79494L126.425 8.84663C126.438 8.53653 126.257 8.11015 126.192 7.86466Z" fill="#6945A9"/>
<path d="M126.192 7.86466C126.102 7.4512 125.999 7.03774 125.882 6.63719C125.663 5.88779 125.391 5.15131 125.043 4.45359C124.461 3.30365 123.66 2.19247 122.51 1.54643C121.787 1.14589 120.96 0.965006 120.133 1.01669C116.954 1.19758 114.964 4.37607 114.357 8.67866C114.176 9.90613 114.125 11.224 114.176 12.5807C114.228 13.7565 114.37 14.9323 114.628 16.0693C114.951 17.4647 115.417 19.9972 117.406 19.6225C118.582 19.4028 118.608 17.917 118.182 17.0384C117.82 16.276 117.368 15.6817 117.187 14.8418C117.019 14.0537 116.993 13.2526 117.019 12.4515C117.07 11.2111 117.2 9.90613 117.432 8.71742C117.91 6.32709 118.789 4.38899 120.21 4.35023C121.128 4.32439 121.709 5.00918 122.058 5.78442C122.278 6.28833 122.42 6.81808 122.523 7.36075C122.613 7.80005 122.613 8.2652 122.717 8.70451C122.73 8.74327 122.73 8.7691 122.743 8.79494L126.425 8.84663C126.438 8.53653 126.257 8.11015 126.192 7.86466Z" fill="#6125E5"/>
<path d="M126.192 7.86466C126.102 7.4512 125.999 7.03774 125.882 6.63719C125.663 5.88779 125.391 5.15131 125.043 4.45359C124.461 3.30365 123.66 2.19247 122.51 1.54643C121.787 1.14589 120.96 0.965006 120.133 1.01669C116.954 1.19758 114.964 4.37607 114.357 8.67866C114.176 9.90613 114.125 11.224 114.176 12.5807C114.228 13.7565 114.37 14.9323 114.628 16.0693C114.951 17.4647 115.417 19.9972 117.406 19.6225C118.582 19.4028 118.608 17.917 118.182 17.0384C117.82 16.276 117.368 15.6817 117.187 14.8418C117.019 14.0537 116.993 13.2526 117.019 12.4515C117.07 11.2111 117.2 9.90613 117.432 8.71742C117.91 6.32709 118.789 4.38899 120.21 4.35023C121.128 4.32439 121.709 5.00918 122.058 5.78442C122.278 6.28833 122.42 6.81808 122.523 7.36075C122.613 7.80005 122.613 8.2652 122.717 8.70451C122.73 8.74327 122.73 8.7691 122.743 8.79494L126.425 8.84663C126.438 8.53653 126.257 8.11015 126.192 7.86466Z" fill="#A389F0"/>
<path d="M147.471 10.9775C147.833 10.4478 148.156 9.86632 148.505 9.29781C148.634 9.07816 148.763 8.87143 148.854 8.62593C148.906 8.48381 148.931 8.32876 149.022 8.19955C149.254 7.86361 149.733 7.85069 150.133 7.88945C151.748 8.05742 152.213 8.96188 152.149 10.5124C152.032 13.174 150.999 15.7452 149.086 17.6058C147.562 19.0917 145.688 19.8928 143.556 19.8669C143.156 19.8669 142.742 19.8282 142.381 19.6602C141.644 19.3243 141.218 18.4974 141.218 17.6963C141.218 14.7891 144.383 13.7425 146.257 12.3083C146.748 11.9078 147.135 11.4556 147.471 10.9775Z" fill="url(#paint4_radial_19776_189278)"/>
<path d="M151.942 8.27756C151.852 7.8641 151.749 7.45064 151.632 7.0501C151.413 6.3007 151.141 5.56422 150.793 4.8665C150.211 3.71656 149.41 2.60538 148.26 1.95934C147.537 1.5588 146.71 1.37791 145.883 1.42959C142.704 1.61048 140.714 4.78898 140.107 9.09157C139.926 10.319 139.875 11.6369 139.926 12.9936C139.978 14.1694 140.12 15.3452 140.378 16.4822C140.701 17.8776 141.167 20.4101 143.156 20.0354C144.332 19.8157 144.358 18.3299 143.932 17.4513C143.57 16.6889 143.118 16.0946 142.937 15.2547C142.769 14.4666 142.743 13.6655 142.769 12.8644C142.82 11.624 142.95 10.319 143.182 9.13033C143.66 6.74 144.539 4.8019 145.96 4.76314C146.878 4.7373 147.459 5.42209 147.808 6.19733C148.028 6.70124 148.17 7.23099 148.273 7.77366C148.363 8.21296 148.363 8.6781 148.467 9.11741C148.48 9.15617 148.48 9.18201 148.493 9.20785L152.175 9.25954C152.188 8.93652 151.994 8.52306 151.942 8.27756Z" fill="#6945A9"/>
<path d="M151.942 8.27756C151.852 7.8641 151.749 7.45064 151.632 7.0501C151.413 6.3007 151.141 5.56422 150.793 4.8665C150.211 3.71656 149.41 2.60538 148.26 1.95934C147.537 1.5588 146.71 1.37791 145.883 1.42959C142.704 1.61048 140.714 4.78898 140.107 9.09157C139.926 10.319 139.875 11.6369 139.926 12.9936C139.978 14.1694 140.12 15.3452 140.378 16.4822C140.701 17.8776 141.167 20.4101 143.156 20.0354C144.332 19.8157 144.358 18.3299 143.932 17.4513C143.57 16.6889 143.118 16.0946 142.937 15.2547C142.769 14.4666 142.743 13.6655 142.769 12.8644C142.82 11.624 142.95 10.319 143.182 9.13033C143.66 6.74 144.539 4.8019 145.96 4.76314C146.878 4.7373 147.459 5.42209 147.808 6.19733C148.028 6.70124 148.17 7.23099 148.273 7.77366C148.363 8.21296 148.363 8.6781 148.467 9.11741C148.48 9.15617 148.48 9.18201 148.493 9.20785L152.175 9.25954C152.188 8.93652 151.994 8.52306 151.942 8.27756Z" fill="#6125E5"/>
<path d="M151.942 8.27756C151.852 7.8641 151.749 7.45064 151.632 7.0501C151.413 6.3007 151.141 5.56422 150.793 4.8665C150.211 3.71656 149.41 2.60538 148.26 1.95934C147.537 1.5588 146.71 1.37791 145.883 1.42959C142.704 1.61048 140.714 4.78898 140.107 9.09157C139.926 10.319 139.875 11.6369 139.926 12.9936C139.978 14.1694 140.12 15.3452 140.378 16.4822C140.701 17.8776 141.167 20.4101 143.156 20.0354C144.332 19.8157 144.358 18.3299 143.932 17.4513C143.57 16.6889 143.118 16.0946 142.937 15.2547C142.769 14.4666 142.743 13.6655 142.769 12.8644C142.82 11.624 142.95 10.319 143.182 9.13033C143.66 6.74 144.539 4.8019 145.96 4.76314C146.878 4.7373 147.459 5.42209 147.808 6.19733C148.028 6.70124 148.17 7.23099 148.273 7.77366C148.363 8.21296 148.363 8.6781 148.467 9.11741C148.48 9.15617 148.48 9.18201 148.493 9.20785L152.175 9.25954C152.188 8.93652 151.994 8.52306 151.942 8.27756Z" fill="#A389F0"/>
<path d="M54.1829 41.5873C50.7073 41.471 47.2445 41.3676 43.7688 41.2513C42.115 41.1996 41.0038 39.9722 41.2751 38.5121C41.8437 35.4499 42.3217 32.3877 42.7223 29.3514C42.9161 27.8913 44.389 26.7543 46.0558 26.8189C49.5315 26.9352 53.0201 27.0386 56.4957 27.1548C58.1625 27.2065 59.3641 28.434 59.1703 29.8811C58.7569 32.9304 58.2659 35.9926 57.6974 39.0548C57.426 40.5019 55.8368 41.639 54.1829 41.5873ZM104.935 61.7177C105.879 58.6555 106.731 55.5933 107.507 52.544C107.881 51.084 106.809 49.8694 105.155 49.8048C101.692 49.6886 98.2167 49.5852 94.7539 49.4689C93.1001 49.4172 91.485 50.5542 91.1103 52.0143C90.348 55.0636 89.4952 58.1258 88.5649 61.188C88.1256 62.648 89.0817 63.8755 90.7227 63.9401C94.1854 64.0564 97.6352 64.1597 101.098 64.276C102.765 64.3277 104.496 63.1778 104.935 61.7177Z" fill="#FE602D"/>
<defs>
<radialGradient id="paint0_radial_19776_189278" cx="0" cy="0" r="1" gradientUnits="userSpaceOnUse" gradientTransform="translate(35.1229 5.85401) rotate(8.68399) scale(14.5291 14.5091)">
<stop offset="0.7374" stop-color="#A6BBBE"/>
<stop offset="0.8536" stop-color="#A6BBBE"/>
<stop offset="0.9774" stop-color="#A6BBBE"/>
</radialGradient>
<radialGradient id="paint1_radial_19776_189278" cx="0" cy="0" r="1" gradientUnits="userSpaceOnUse" gradientTransform="translate(60.8651 6.16819) rotate(8.68399) scale(14.5291 14.5091)">
<stop offset="0.7374" stop-color="#A6BBBE"/>
<stop offset="0.8536" stop-color="#A6BBBE"/>
<stop offset="0.9774" stop-color="#A6BBBE"/>
</radialGradient>
<radialGradient id="paint2_radial_19776_189278" cx="0" cy="0" r="1" gradientUnits="userSpaceOnUse" gradientTransform="translate(86.6064 6.48163) rotate(8.68399) scale(14.5291 14.5092)">
<stop offset="0.7374" stop-color="#A6BBBE"/>
<stop offset="0.8536" stop-color="#A6BBBE"/>
<stop offset="0.9774" stop-color="#A6BBBE"/>
</radialGradient>
<radialGradient id="paint3_radial_19776_189278" cx="0" cy="0" r="1" gradientUnits="userSpaceOnUse" gradientTransform="translate(112.352 6.86474) rotate(8.68399) scale(14.5291 14.5091)">
<stop offset="0.7374" stop-color="#A6BBBE"/>
<stop offset="0.8536" stop-color="#A6BBBE"/>
<stop offset="0.9774" stop-color="#A6BBBE"/>
</radialGradient>
<radialGradient id="paint4_radial_19776_189278" cx="0" cy="0" r="1" gradientUnits="userSpaceOnUse" gradientTransform="translate(138.094 7.27012) rotate(8.68399) scale(14.5291 14.5091)">
<stop offset="0.7374" stop-color="#A6BBBE"/>
<stop offset="0.8536" stop-color="#A6BBBE"/>
<stop offset="0.9774" stop-color="#A6BBBE"/>
</radialGradient>
</defs>
</svg>
