<svg width="53" height="91" viewBox="0 0 53 91" fill="none" xmlns="http://www.w3.org/2000/svg">
<g style="mix-blend-mode:multiply" opacity="0.2">
<path style="mix-blend-mode:multiply" opacity="0.2" d="M26.0423 74.0642C26.1701 74.0782 26.2981 74.0863 26.4264 74.0887H26.4636C26.5382 74.0887 26.6124 74.0887 26.6866 74.0843L26.7327 74.0817C26.8069 74.0773 26.8807 74.0707 26.9545 74.0624C26.9672 74.0624 26.9802 73.9692 26.9928 73.9674C27.0777 73.9569 27.1625 73.8361 27.2473 73.8361C28.2435 73.8361 29.1944 73.1817 29.8937 72.2602C36.6941 63.2827 51.5236 42.4772 51.5236 31.2173C51.5236 16.6644 40.4587 4.71857 26.5993 4.50452C26.3282 4.50014 26.0586 4.51371 25.7895 4.51809C25.761 4.51809 25.7324 4.52203 25.7039 4.52159C11.6068 4.30273 0 16.2936 0 31.3018C0 42.9136 15.4831 63.7874 22.396 72.5203C23.3339 73.7017 24.7085 74.2112 26.0423 74.0642Z" fill="url(#paint0_linear_1146_8337)"/>
<path style="mix-blend-mode:multiply" opacity="0.2" d="M26.5984 79.9845C26.4973 79.9876 26.3974 79.9941 26.2979 80.0033C26.1001 79.9849 25.9014 79.9786 25.703 79.9845C22.8412 80.0721 20.5137 82.5987 20.5137 85.6287C20.5137 88.6587 22.8412 91.0281 25.703 90.9222C25.7943 90.9187 25.8851 90.9127 25.9754 90.9043C26.1825 90.9232 26.3906 90.9292 26.5984 90.9222C29.4504 90.8163 31.7551 88.2897 31.7551 85.2789C31.7551 82.2682 29.4492 79.8974 26.5984 79.9845Z" fill="url(#paint1_linear_1146_8337)"/>
</g>
<path d="M52.1031 27.6104C52.1031 38.8703 37.2737 59.7209 30.4729 68.6989C28.7717 70.9445 25.5825 71.0316 23.8711 68.8696C16.9581 60.1372 1.47461 39.2647 1.47461 27.6528C1.47461 12.6446 13.0814 0.657675 27.1785 0.87523C41.0382 1.09103 52.1031 13.0592 52.1031 27.6104Z" fill="url(#paint2_linear_1146_8337)"/>
<path d="M32.3355 81.6273C32.3355 84.6385 30.0308 87.1646 27.1788 87.2706C24.3171 87.3783 21.9883 85.0084 21.9883 81.9775C21.9883 78.9466 24.3158 76.4182 27.1776 76.3333C30.0308 76.2475 32.3355 78.6183 32.3355 81.6273Z" fill="url(#paint3_linear_1146_8337)"/>
<path d="M52.9996 27.6105C52.9996 38.8704 38.1702 59.7211 31.3694 68.699C29.6681 70.9446 26.4785 71.0317 24.7671 68.8698C17.8542 60.1391 2.37109 39.2666 2.37109 27.6543C2.37109 12.6461 13.9775 0.65914 28.075 0.876694C41.9343 1.09118 52.9996 13.0593 52.9996 27.6105Z" fill="url(#paint4_linear_1146_8337)"/>
<path d="M42.0695 27.621C42.0695 35.7922 35.8335 42.4782 28.0748 42.5548C20.2423 42.6327 13.8379 35.9572 13.8379 27.6446C13.8379 19.332 20.2423 12.6461 28.0748 12.7104C35.8335 12.7743 42.0695 19.4498 42.0695 27.621Z" fill="white"/>
<g style="mix-blend-mode:multiply" opacity="0.3">
<path style="mix-blend-mode:multiply" opacity="0.3" d="M27.9613 57.8024C29.5655 46.6029 36.5061 42.957 35.3187 32.4596C33.9478 20.3344 23.7621 17.0474 23.5145 6.18149C23.48 4.47736 23.6862 2.77745 24.1262 1.13965C11.8702 2.97201 2.36914 14.0844 2.36914 27.6542C2.36914 39.266 17.8522 60.1386 24.7652 68.8709C25.7728 70.1439 27.2934 70.6363 28.7206 70.368C27.4944 65.5034 27.4569 61.3213 27.9613 57.8024Z" fill="url(#paint5_linear_1146_8337)"/>
</g>
<path d="M33.2303 81.6273C33.2303 84.6385 30.9256 87.1646 28.0737 87.2706C25.2115 87.3783 22.8848 85.0084 22.8848 81.9775C22.8848 78.9466 25.2119 76.4182 28.0741 76.3333C30.9256 76.2475 33.2303 78.6183 33.2303 81.6273Z" fill="url(#paint6_linear_1146_8337)"/>
<defs>
<linearGradient id="paint0_linear_1146_8337" x1="61.4324" y1="-26.8575" x2="-43.2773" y2="121.198" gradientUnits="userSpaceOnUse">
<stop stop-color="#444B8C"/>
<stop offset="1" stop-color="#26264F"/>
</linearGradient>
<linearGradient id="paint1_linear_1146_8337" x1="33.1118" y1="74.0843" x2="13.931" y2="101.205" gradientUnits="userSpaceOnUse">
<stop stop-color="#444B8C"/>
<stop offset="1" stop-color="#26264F"/>
</linearGradient>
<linearGradient id="paint2_linear_1146_8337" x1="23.5689" y1="17.9097" x2="52.0028" y2="86.1345" gradientUnits="userSpaceOnUse">
<stop stop-color="#311944"/>
<stop offset="1" stop-color="#893976"/>
</linearGradient>
<linearGradient id="paint3_linear_1146_8337" x1="33.8243" y1="70.9487" x2="15.5114" y2="96.8421" gradientUnits="userSpaceOnUse">
<stop stop-color="#311944"/>
<stop offset="1" stop-color="#893976"/>
</linearGradient>
<linearGradient id="paint4_linear_1146_8337" x1="24.4654" y1="17.9099" x2="52.8989" y2="86.1347" gradientUnits="userSpaceOnUse">
<stop stop-color="#FF9085"/>
<stop offset="1" stop-color="#FB6FBB"/>
</linearGradient>
<linearGradient id="paint5_linear_1146_8337" x1="15.5185" y1="21.6441" x2="43.9589" y2="89.8843" gradientUnits="userSpaceOnUse">
<stop stop-color="#FF9085"/>
<stop offset="1" stop-color="#FB6FBB"/>
</linearGradient>
<linearGradient id="paint6_linear_1146_8337" x1="34.7187" y1="70.9487" x2="16.4062" y2="96.8421" gradientUnits="userSpaceOnUse">
<stop stop-color="#FF9085"/>
<stop offset="1" stop-color="#FB6FBB"/>
</linearGradient>
</defs>
</svg>
