<svg width="163" height="48" viewBox="0 0 163 48" fill="none" xmlns="http://www.w3.org/2000/svg">
<g clip-path="url(#clip0_1146_9083)">
<path d="M156.536 47.9953H6.80751C3.51352 47.9953 0.818359 45.2958 0.818359 41.9965V6.00349C0.818359 2.70411 3.51346 0.00463867 6.80751 0.00463867H156.536C159.83 0.00463867 162.525 2.70411 162.525 6.00349V41.9964C162.525 45.2958 159.83 47.9953 156.536 47.9953" fill="black"/>
<path d="M156.536 0.00463867H6.80751C3.51352 0.00463867 0.818359 2.70411 0.818359 6.00349V41.9964C0.818359 45.2958 3.51346 47.9953 6.80751 47.9953H156.536C159.83 47.9953 162.525 45.2958 162.525 41.9965V6.00349C162.525 2.70411 159.83 0.00463867 156.536 0.00463867H156.536ZM156.536 0.964421C159.31 0.964421 161.567 3.2253 161.567 6.00349V41.9964C161.567 44.7751 159.31 47.036 156.536 47.036H6.80751C4.03385 47.036 1.77663 44.7751 1.77663 41.9965V6.00349C1.77663 3.2253 4.03379 0.964475 6.80751 0.964475H156.536" fill="#A6A6A6"/>
<path d="M57.6177 12.2943C57.6177 13.2995 57.3204 14.0999 56.7253 14.697C56.0492 15.4071 55.168 15.7624 54.0848 15.7624C53.0475 15.7624 52.1655 15.4024 51.4403 14.6816C50.7137 13.9612 50.3511 13.068 50.3511 12.0023C50.3511 10.936 50.7137 10.0433 51.4403 9.32243C52.1655 8.60216 53.0475 8.2417 54.0848 8.2417C54.5996 8.2417 55.0923 8.34253 55.5602 8.5436C56.0281 8.74515 56.4034 9.01271 56.6841 9.34777L56.0524 9.9809C55.5766 9.4115 54.9215 9.12702 54.0848 9.12702C53.3283 9.12702 52.6742 9.39328 52.1221 9.92612C51.5699 10.4595 51.2939 11.1512 51.2939 12.0023C51.2939 12.8534 51.5699 13.545 52.1221 14.0785C52.6742 14.6113 53.3283 14.8775 54.0848 14.8775C54.8874 14.8775 55.5565 14.6099 56.0922 14.0738C56.4399 13.7245 56.641 13.2391 56.6948 12.6157H54.0848V11.7511H57.5675C57.6012 11.9391 57.6175 12.1195 57.6175 12.2943" fill="white"/>
<path d="M57.6177 12.2944H57.4979C57.4969 13.2767 57.2105 14.0396 56.6406 14.6123L56.6393 14.6133L56.6388 14.6143C55.9842 15.2998 55.1428 15.641 54.0849 15.6425C53.0753 15.641 52.2302 15.2961 51.5245 14.5969C50.8204 13.8962 50.4723 13.0409 50.4709 12.0024C50.4723 10.9634 50.8204 10.1085 51.5245 9.40837C52.2302 8.70864 53.0753 8.36323 54.0849 8.36177C54.5842 8.36177 55.0596 8.45937 55.5129 8.65381C55.9668 8.84975 56.3253 9.10652 56.5924 9.4253L56.6842 9.34787L56.5995 9.26305L55.9678 9.89662L56.0524 9.981L56.1447 9.90422C55.6467 9.30662 54.9478 9.00537 54.0849 9.00715C53.3003 9.00618 52.6101 9.28699 52.0392 9.84005C51.4628 10.3949 51.1732 11.1255 51.1742 12.0024C51.1732 12.8793 51.4628 13.6098 52.0392 14.1647C52.6101 14.7178 53.3003 14.9986 54.0849 14.9976C54.914 14.999 55.6206 14.7173 56.1769 14.1587C56.5484 13.7856 56.759 13.2687 56.8143 12.6261L56.8254 12.4958H54.2047V11.8711H57.5676V11.7512L57.4496 11.7722C57.4824 11.9542 57.4979 12.127 57.4979 12.2944H57.7374C57.7374 12.112 57.7206 11.9246 57.6855 11.7297L57.6677 11.6312H53.9652V12.7358H56.6949V12.6158L56.5756 12.6055C56.5228 13.2092 56.3309 13.6638 56.0076 13.9891C55.4929 14.5027 54.8612 14.7562 54.0849 14.7576C53.3565 14.7567 52.7384 14.5055 52.2054 13.9923C51.6776 13.481 51.4151 12.8282 51.4138 12.0024C51.4151 11.1766 51.6776 10.5238 52.2054 10.0124C52.7384 9.49928 53.3564 9.24806 54.0849 9.24709C54.8949 9.24903 55.5065 9.51707 55.9609 10.0584L56.0451 10.1587L56.7689 9.43274L56.8466 9.35499L56.7759 9.27098C56.4816 8.91958 56.0895 8.64065 55.6075 8.4336C55.1247 8.22589 54.6151 8.12183 54.0849 8.12183C53.02 8.12091 52.1011 8.49582 51.3557 9.23776C50.6075 9.97825 50.2304 10.909 50.2314 12.0024C50.2304 13.0952 50.6075 14.0265 51.3562 14.7675C52.1011 15.5089 53.02 15.8834 54.0849 15.8824C55.1939 15.8834 56.1138 15.5145 56.8119 14.7801L56.7253 14.6971L56.81 14.782C57.4305 14.161 57.7383 13.3221 57.7375 12.2944H57.6177H57.6177ZM63.1389 9.28742H59.8659V11.5699H62.8175V12.4349H59.8659V14.7173H63.1389V15.6017H58.9432V8.40308H63.1389V9.28742Z" fill="white"/>
<path d="M63.1387 9.28728V9.16731H59.7459V11.6897H62.6975V12.3144L59.7459 12.3147V14.8371H63.0188V15.4815H59.0628V8.5229H63.0188V9.28728H63.1387V9.16731V9.28728H63.2584V8.28296H58.8232V15.7215H63.2584V14.5972H59.9854V12.5547H62.937V11.4498H59.9854V9.40725H63.2584V9.28728H63.1387ZM67.033 15.6016H66.1089V9.28723H64.1016V8.40288H69.0403V9.28723H67.033V15.6015" fill="white"/>
<path d="M67.0331 15.6016V15.4815H66.2288V9.16731H64.2215V8.52296H68.9207V9.16731H66.9134V15.6015H67.0331V15.4815V15.6015H67.1529V9.40725H69.1602V8.28296H63.9819V9.4072H65.9892V15.7214H67.1529V15.6015H67.0331V15.6016ZM72.6138 15.6016V8.40288H73.537V15.6015H72.6138" fill="white"/>
<path d="M72.6139 15.6016H72.7337V8.5229H73.4173V15.4815H72.6139V15.6015H72.7337H72.6139V15.7215H73.6568V8.28296H72.4941V15.7215H72.6139V15.6015V15.6016ZM77.6335 15.6016H76.7094V9.28723H74.7022V8.40288H79.6409V9.28723H77.6335V15.6015" fill="white"/>
<path d="M77.6331 15.6016V15.4816H76.8288V9.16735H74.8216V8.523H79.5206V9.16735H77.5134V15.6016H77.6331V15.4816V15.6016H77.7529V9.4073H79.7602V8.283H74.582V9.40724H76.5892V15.7215H77.7529V15.6015H77.6331V15.6016ZM84.4018 14.0687C84.9338 14.608 85.5847 14.8775 86.3544 14.8775C87.1241 14.8775 87.7754 14.608 88.3065 14.0687C88.839 13.5292 89.1057 12.8397 89.1057 12.0023C89.1057 11.1649 88.839 10.4754 88.3065 9.93593C87.7754 9.39651 87.1241 9.12702 86.3544 9.12702C85.5847 9.12702 84.9338 9.39651 84.4018 9.93593C83.8707 10.4754 83.6041 11.1648 83.6041 12.0023C83.6041 12.8397 83.8707 13.5292 84.4018 14.0687ZM88.9896 14.6713C88.283 15.399 87.4043 15.7624 86.3544 15.7624C85.3034 15.7624 84.4251 15.399 83.7201 14.6713C83.0131 13.9443 82.6612 13.0545 82.6612 12.0023C82.6612 10.9501 83.0131 10.0601 83.7201 9.33326C84.4252 8.60534 85.3034 8.2417 86.3544 8.2417C87.3988 8.2417 88.2751 8.60728 88.985 9.33795C89.6938 10.0686 90.0485 10.9566 90.0485 12.0023C90.0485 13.0545 89.6947 13.9443 88.9896 14.6713Z" fill="white"/>
<path d="M84.4019 14.0688L84.3167 14.1531C84.8684 14.7141 85.5567 14.999 86.3544 14.9976C87.1517 14.999 87.8409 14.7141 88.3917 14.1531C88.947 13.5916 89.2263 12.8651 89.2255 12.0024C89.2263 11.1396 88.947 10.4132 88.3917 9.85165C87.8409 9.29066 87.1517 9.00575 86.3544 9.00715C85.5567 9.00575 84.8684 9.29066 84.3167 9.85165C83.7627 10.4132 83.4828 11.1396 83.4843 12.0024C83.4828 12.8651 83.7627 13.5916 84.3167 14.1531L84.4019 14.0688L84.4871 13.9844C83.9789 13.4665 83.7248 12.815 83.7239 12.0024C83.7248 11.1898 83.9789 10.5383 84.487 10.0204C84.9998 9.50257 85.6123 9.24855 86.3544 9.24715C87.096 9.24855 87.7099 9.50257 88.2214 10.0204C88.7304 10.5383 88.9845 11.1898 88.9854 12.0024C88.9845 12.8149 88.7304 13.4665 88.2214 13.9844C87.7099 14.5022 87.0961 14.7562 86.3544 14.7576C85.6123 14.7562 84.9998 14.5022 84.487 13.9844L84.4019 14.0688ZM88.9896 14.6714L88.904 14.588C88.2172 15.2929 87.3772 15.6411 86.3544 15.6425C85.3311 15.641 84.4912 15.2929 83.8057 14.588L83.8024 14.5842L83.8057 14.588C83.1203 13.8807 82.782 13.0278 82.7811 12.0024C82.782 10.9769 83.1203 10.124 83.8057 9.41678C84.4912 8.71188 85.3311 8.36323 86.3544 8.36183C87.3707 8.36323 88.2086 8.71334 88.8993 9.4219C89.5871 10.1324 89.9273 10.984 89.9288 12.0024C89.9273 13.0278 89.5881 13.8807 88.904 14.588L88.9896 14.6714L89.0758 14.7547C89.8019 14.0078 90.1691 13.0812 90.1683 12.0024C90.1692 10.9297 89.8005 10.005 89.071 9.2547C88.3411 8.50143 87.4269 8.12054 86.3544 8.12183C85.2764 8.12054 84.3593 8.49965 83.634 9.25001V9.24947C82.9065 9.99696 82.5405 10.9235 82.5415 12.0024C82.5405 13.0812 82.9065 14.0078 83.634 14.7552L83.6373 14.7586L83.634 14.7547C84.3593 15.5051 85.2764 15.8834 86.3544 15.8824C87.432 15.8834 88.3491 15.5051 89.0758 14.7547L88.9896 14.6714ZM91.3445 15.6017V8.40302H92.4685L95.9614 14.003H96.0012L95.9614 12.6158V8.40302H96.8855V15.6016H95.9216L92.2673 9.73022H92.2275L92.2673 11.118V15.6016H91.3446" fill="white"/>
<path d="M91.3448 15.6016H91.4646V8.5229H92.4023L95.8952 14.1229H96.1244L96.0814 12.6139V8.52296H96.766V15.4815H95.9883L92.334 9.61015H92.1048L92.1478 11.1198V15.4815H91.3449V15.6015H91.4646H91.3449V15.7215H92.3873V11.116L92.3476 9.72689L92.2278 9.73013V9.8501H92.2676V9.73013L92.166 9.79392L95.8554 15.7215H97.0056V8.28296H95.8419V12.6171L95.8816 14.0062L96.0014 14.0029V13.883H95.9617V14.0029L96.0632 13.9393L92.5351 8.28296H91.2251V15.7215H91.3449V15.6015L91.3448 15.6016ZM128.91 35.9975H131.145V20.999H128.909L128.91 35.9975ZM149.041 26.4019L146.479 32.9044H146.403L143.743 26.4018H141.336L145.323 35.4904L143.05 40.5459H145.382L151.527 26.4018L149.041 26.4019ZM136.366 34.294C135.633 34.294 134.612 33.9275 134.612 33.0202C134.612 31.8625 135.884 31.4188 136.982 31.4188C137.965 31.4188 138.426 31.631 139.024 31.9208C138.85 33.3098 137.656 34.294 136.366 34.294ZM136.636 26.0737C135.017 26.0737 133.341 26.7879 132.648 28.3702L134.632 29.1997C135.056 28.3702 135.845 28.0997 136.674 28.0997C137.83 28.0997 139.005 28.7947 139.024 30.0297V30.1839C138.619 29.9523 137.753 29.6051 136.693 29.6051C134.555 29.6051 132.377 30.7818 132.377 32.9817C132.377 34.9886 134.131 36.2815 136.095 36.2815C137.599 36.2815 138.426 35.6062 138.947 34.8152H139.024V35.9727H141.181V30.2222C141.181 27.5599 139.198 26.0737 136.636 26.0737ZM122.822 28.2276H119.643V23.0865H122.822C124.493 23.0865 125.442 24.4723 125.442 25.657C125.442 26.8193 124.493 28.2276 122.822 28.2276ZM122.765 20.999H117.409V35.9975H119.643V30.3151H122.765C125.242 30.3151 127.677 28.5187 127.677 25.657C127.677 22.7955 125.242 20.999 122.765 20.999ZM93.5604 34.2968C92.0162 34.2968 90.7234 33.0019 90.7234 31.2233C90.7234 29.4261 92.0162 28.1115 93.5604 28.1115C95.0849 28.1115 96.2812 29.426 96.2812 31.2233C96.2812 33.0019 95.0849 34.2968 93.5604 34.2968H93.5604ZM96.1268 27.2417H96.0496C95.548 26.6426 94.5827 26.1014 93.3672 26.1014C90.8199 26.1014 88.4851 28.3434 88.4851 31.2233C88.4851 34.0841 90.8198 36.3069 93.3672 36.3069C94.5827 36.3069 95.548 35.7655 96.0496 35.1474H96.1268V35.8818C96.1268 37.8343 95.0849 38.878 93.406 38.878C92.0359 38.878 91.1867 37.8919 90.839 37.0609L88.8903 37.8727C89.4499 39.2256 90.9359 40.8881 93.406 40.8881C96.0304 40.8881 98.2497 39.3414 98.2497 35.5725V26.4107H96.1268V27.2417ZM99.7933 35.9975H102.032V20.9985H99.7933V35.9975ZM105.332 31.0495C105.274 29.0778 106.856 28.073 107.995 28.073C108.883 28.073 109.635 28.5173 109.886 29.1557L105.332 31.0495ZM112.279 29.3487C111.855 28.2079 110.561 26.1014 107.917 26.1014C105.293 26.1014 103.113 28.1695 103.113 31.2041C103.113 34.0649 105.274 36.3069 108.168 36.3069C110.504 36.3069 111.855 34.8765 112.414 34.0455L110.677 32.8856C110.099 33.7362 109.307 34.2968 108.168 34.2968C107.03 34.2968 106.22 33.7747 105.698 32.7506L112.51 29.9284L112.279 29.3487ZM58.0074 27.6671V29.8318H63.179C63.0246 31.0495 62.6193 31.9385 62.0017 32.5571C61.2494 33.3112 60.0722 34.1421 58.0073 34.1421C54.8232 34.1421 52.334 31.5715 52.334 28.3823C52.334 25.1931 54.8232 22.6221 58.0074 22.6221C59.725 22.6221 60.9789 23.2988 61.9053 24.1685L63.4298 22.6417C62.137 21.4044 60.4193 20.4574 58.0074 20.4574C53.646 20.4574 49.9795 24.014 49.9795 28.3823C49.9795 32.7506 53.646 36.3069 58.0074 36.3069C60.3618 36.3069 62.137 35.5341 63.5262 34.0841C64.9543 32.6537 65.3983 30.6436 65.3983 29.0202C65.3983 28.5173 65.3599 28.0538 65.2823 27.6671H58.0074ZM71.278 34.2968C69.7339 34.2968 68.4023 33.021 68.4023 31.2041C68.4023 29.3679 69.7339 28.1115 71.278 28.1115C72.8215 28.1115 74.1531 29.3679 74.1531 31.2041C74.1531 33.0211 72.8215 34.2968 71.278 34.2968ZM71.278 26.1014C68.4602 26.1014 66.1637 28.2468 66.1637 31.2041C66.1637 34.1421 68.4602 36.3069 71.278 36.3069C74.0952 36.3069 76.3916 34.1421 76.3916 31.2041C76.3916 28.2468 74.0952 26.1014 71.278 26.1014ZM82.4336 34.2968C80.8901 34.2968 79.5583 33.021 79.5583 31.2041C79.5583 29.3679 80.8901 28.1115 82.4336 28.1115C83.9773 28.1115 85.3089 29.3679 85.3089 31.2041C85.3089 33.0211 83.9773 34.2968 82.4336 34.2968H82.4336ZM82.4336 26.1014C79.616 26.1014 77.32 28.2468 77.32 31.2041C77.32 34.1421 79.616 36.3069 82.4336 36.3069C85.2509 36.3069 87.5474 34.1421 87.5474 31.2041C87.5474 28.2468 85.2509 26.1014 82.4336 26.1014H82.4336Z" fill="white"/>
<path d="M13.4061 9.13654C13.0041 9.4998 12.7642 10.1057 12.7642 10.91V10.7282V37.2683V37.0935C12.7642 37.8362 12.97 38.4098 13.3185 38.7793L13.4075 38.8646V38.8649C13.6896 39.1199 14.0513 39.2553 14.4659 39.2549C14.871 39.2549 15.3268 39.1255 15.8079 38.8524L33.1946 28.9576L39.1668 25.5584C39.9253 25.1268 40.3511 24.57 40.4223 24.0029V24.0005C40.3511 23.4321 39.9253 22.8758 39.1669 22.4441L33.1941 19.0454L15.8079 9.15056C15.3259 8.87691 14.8698 8.74707 14.4636 8.74707C14.0495 8.74707 13.6882 8.88203 13.4062 9.13654H13.4061Z" fill="#00C1FF"/>
<path d="M13.4075 38.8645L13.3185 38.7792C12.97 38.4098 12.7642 37.8362 12.7642 37.0934V37.2682V10.7347V10.9099C12.7642 10.1056 13.0041 9.49975 13.4061 9.13649L28.247 24.001L13.4075 38.8645Z" fill="url(#paint0_linear_1146_9083)"/>
<path d="M33.1942 28.9573L28.2466 24.0008L33.1938 19.0451L39.1665 22.4439C39.9249 22.8755 40.3507 23.4318 40.4219 24.0003V24.0026C40.3507 24.5697 39.9249 25.1266 39.1665 25.5581L33.1943 28.9572" fill="url(#paint1_linear_1146_9083)"/>
<path d="M14.4656 39.2549C14.051 39.2553 13.6893 39.1198 13.4072 38.8649V38.8645L28.2467 24.001L33.1943 28.9574L15.8075 38.8523C15.3265 39.1255 14.8707 39.2549 14.4656 39.2549Z" fill="url(#paint2_linear_1146_9083)"/>
<path d="M28.2467 24.001L13.4058 9.13649C13.6879 8.88198 14.0491 8.74702 14.4632 8.74702C14.8694 8.74702 15.3255 8.87681 15.8075 9.15051L33.1938 19.0453L28.2466 24.001" fill="url(#paint3_linear_1146_9083)"/>
<path d="M14.4662 39.4304C14.0516 39.4304 13.6894 39.295 13.4073 39.04L13.4068 39.0405C13.4056 39.0393 13.4044 39.0382 13.4031 39.0372L13.3259 38.9617C13.3235 38.9594 13.3212 38.9566 13.3184 38.9539L13.4073 38.8647C13.6894 39.1197 14.0511 39.2551 14.4658 39.2546C14.8708 39.2546 15.3266 39.1253 15.8076 38.8521L33.1944 28.9573L33.3058 29.0689L33.193 29.1331L15.8076 39.0274C15.3692 39.2763 14.9523 39.406 14.5756 39.4277C14.5392 39.4295 14.5027 39.4304 14.4662 39.4304" fill="url(#paint4_linear_1146_9083)"/>
<path d="M13.3185 38.9539C12.97 38.5845 12.7642 38.0113 12.7642 37.2681V37.0933C12.7642 37.836 12.97 38.4096 13.3185 38.779L13.4075 38.8643L13.3185 38.9539Z" fill="url(#paint5_linear_1146_9083)"/>
<path d="M33.3057 29.069L33.1943 28.9574L39.1666 25.5583C39.9251 25.1268 40.3509 24.5699 40.422 24.0028C40.422 24.2109 40.3757 24.419 40.2836 24.6215C40.0978 25.0297 39.7254 25.4154 39.1666 25.7336L33.3057 29.0691" fill="url(#paint6_linear_1146_9083)"/>
<path d="M40.422 24.0005C40.3509 23.432 39.9251 22.8757 39.1666 22.444L33.1938 19.0453L33.3052 18.9337H33.3057L39.1666 22.2692C40.0028 22.7454 40.4216 23.3729 40.422 24.0005Z" fill="url(#paint7_linear_1146_9083)"/>
<path d="M12.7642 10.9099V10.7266C12.7642 10.6605 12.7659 10.5958 12.7693 10.5331V10.5302C12.7693 10.5293 12.7693 10.5284 12.7697 10.5275V10.5204C12.8057 9.88063 13.0041 9.38159 13.3185 9.04837L13.4061 9.13642C13.0041 9.49973 12.7642 10.1056 12.7642 10.9099Z" fill="url(#paint8_linear_1146_9083)"/>
<path d="M33.1939 19.0454L15.8076 9.15049C15.3257 8.87684 14.8695 8.74706 14.4634 8.74706C14.0493 8.74706 13.688 8.88202 13.4059 9.13652L13.3184 9.04842C13.3457 9.01942 13.3741 8.99145 13.4036 8.96457C13.4045 8.9636 13.4059 8.96263 13.4068 8.96171C13.6867 8.70915 14.0441 8.57419 14.4545 8.57176H14.4634C14.8695 8.57176 15.3257 8.7016 15.8076 8.97535L33.3058 18.9334L33.3053 18.9338L33.1939 19.0454Z" fill="url(#paint9_linear_1146_9083)"/>
</g>
<defs>
<linearGradient id="paint0_linear_1146_9083" x1="22.2484" y1="10.4542" x2="9.45887" y2="23.2643" gradientUnits="userSpaceOnUse">
<stop stop-color="#00A0FF"/>
<stop offset="0.00657" stop-color="#00A1FF"/>
<stop offset="0.2601" stop-color="#00BEFF"/>
<stop offset="0.5122" stop-color="#00D2FF"/>
<stop offset="0.7604" stop-color="#00DFFF"/>
<stop offset="1" stop-color="#00E3FF"/>
</linearGradient>
<linearGradient id="paint1_linear_1146_9083" x1="41.346" y1="23.9152" x2="12.3622" y2="23.9152" gradientUnits="userSpaceOnUse">
<stop stop-color="#FFE000"/>
<stop offset="0.4087" stop-color="#FFBD00"/>
<stop offset="0.7754" stop-color="#FFA500"/>
<stop offset="1" stop-color="#FF9C00"/>
</linearGradient>
<linearGradient id="paint2_linear_1146_9083" x1="30.5675" y1="28.7134" x2="8.89474" y2="50.2625" gradientUnits="userSpaceOnUse">
<stop stop-color="#FF3A44"/>
<stop offset="1" stop-color="#C31162"/>
</linearGradient>
<linearGradient id="paint3_linear_1146_9083" x1="9.58084" y1="6.93275" x2="19.2399" y2="16.5515" gradientUnits="userSpaceOnUse">
<stop stop-color="#32A071"/>
<stop offset="0.0685" stop-color="#2DA771"/>
<stop offset="0.4762" stop-color="#15CF74"/>
<stop offset="0.8009" stop-color="#06E775"/>
<stop offset="1" stop-color="#00F076"/>
</linearGradient>
<linearGradient id="paint4_linear_1146_9083" x1="30.5569" y1="32.1513" x2="13.2002" y2="49.536" gradientUnits="userSpaceOnUse">
<stop stop-color="#CC2E36"/>
<stop offset="1" stop-color="#9C0E4E"/>
</linearGradient>
<linearGradient id="paint5_linear_1146_9083" x1="14.7412" y1="10.4541" x2="3.47381" y2="21.7398" gradientUnits="userSpaceOnUse">
<stop stop-color="#008DE0"/>
<stop offset="0.00657" stop-color="#008DE0"/>
<stop offset="0.2601" stop-color="#00A7E0"/>
<stop offset="0.5122" stop-color="#00B8E0"/>
<stop offset="0.7604" stop-color="#00C4E0"/>
<stop offset="1" stop-color="#00C7E0"/>
</linearGradient>
<linearGradient id="paint6_linear_1146_9083" x1="41.3462" y1="24.0017" x2="12.3623" y2="24.0017" gradientUnits="userSpaceOnUse">
<stop stop-color="#E0C500"/>
<stop offset="0.4087" stop-color="#E0A600"/>
<stop offset="0.7754" stop-color="#E09100"/>
<stop offset="1" stop-color="#E08900"/>
</linearGradient>
<linearGradient id="paint7_linear_1146_9083" x1="41.3462" y1="24.0017" x2="12.3623" y2="24.0017" gradientUnits="userSpaceOnUse">
<stop stop-color="#FFE840"/>
<stop offset="0.4087" stop-color="#FFCE40"/>
<stop offset="0.7754" stop-color="#FFBC40"/>
<stop offset="1" stop-color="#FFB540"/>
</linearGradient>
<linearGradient id="paint8_linear_1146_9083" x1="14.729" y1="10.4746" x2="3.87649" y2="20.8737" gradientUnits="userSpaceOnUse">
<stop stop-color="#40B8FF"/>
<stop offset="0.00657" stop-color="#40B9FF"/>
<stop offset="0.2601" stop-color="#40CEFF"/>
<stop offset="0.5122" stop-color="#40DDFF"/>
<stop offset="0.7604" stop-color="#40E7FF"/>
<stop offset="1" stop-color="#40EAFF"/>
</linearGradient>
<linearGradient id="paint9_linear_1146_9083" x1="9.55932" y1="10.0763" x2="17.3098" y2="17.8395" gradientUnits="userSpaceOnUse">
<stop stop-color="#65B895"/>
<stop offset="0.0685" stop-color="#62BD95"/>
<stop offset="0.4762" stop-color="#50DB97"/>
<stop offset="0.8009" stop-color="#44ED98"/>
<stop offset="1" stop-color="#40F498"/>
</linearGradient>
<clipPath id="clip0_1146_9083">
<rect width="161.869" height="48" fill="white" transform="translate(0.737305)"/>
</clipPath>
</defs>
</svg>
