<svg width="82" height="20" viewBox="0 0 82 20" fill="none" xmlns="http://www.w3.org/2000/svg">
<path d="M0 14.3887C0 13.9436 0.537766 13.7204 0.852981 14.0346L5.40441 18.5713C5.72018 18.8861 5.49727 19.4254 5.05143 19.4254H0.5C0.223857 19.4254 0 19.2016 0 18.9254V14.3887Z" fill="#09141F"/>
<path d="M6.04239 2.50792C6.17983 2.60098 6.26213 2.75618 6.26206 2.92217L6.26152 4.13509C6.2614 4.41115 6.03758 4.63487 5.76152 4.63487H0.5C0.223857 4.63487 0 4.41101 0 4.13487V2.97993C0 2.81101 0.0852949 2.65351 0.226766 2.56119L2.95004 0.784217C3.11868 0.674179 3.33686 0.676038 3.5036 0.788934L6.04239 2.50792Z" fill="#09141F"/>
<path d="M81.8478 7.09763C81.9451 7.00344 82 6.87381 82 6.73838V1.80314C82 1.35974 81.4657 1.13574 81.1495 1.44659L72.9057 9.55085C72.7111 9.74218 72.399 9.7421 72.2045 9.55067L63.4638 0.949044C63.2691 0.757367 62.9565 0.757571 62.7619 0.949502L48.1383 15.3781C47.8224 15.6899 47.2872 15.4661 47.2872 15.0222V13.3935C47.2872 13.2597 47.3408 13.1315 47.4361 13.0375L53.7203 6.84112C53.8156 6.74716 53.8693 6.61892 53.8693 6.48509V1.77295C53.8693 1.32925 53.3343 1.10538 53.0183 1.41684L44.5299 9.78296C44.3352 9.97482 44.0225 9.97481 43.8279 9.78294L35.3736 1.44932C35.0576 1.13782 34.5226 1.36168 34.5226 1.8054V6.56376C34.5226 6.69757 34.5763 6.82579 34.6715 6.91975L40.8743 13.0375C40.9696 13.1315 41.0232 13.2597 41.0232 13.3935V15.0225C41.0232 15.4663 40.4881 15.6901 40.1721 15.3785L25.5951 1.00112C25.4008 0.809521 25.0888 0.809041 24.894 1.00005L12.9441 12.7141C12.7502 12.9042 12.44 12.9047 12.2454 12.7154L6.40775 7.03512C6.31441 6.94429 6.18931 6.89347 6.05906 6.89347H1.22155C0.774074 6.89347 0.551917 7.43622 0.870967 7.74997L12.2543 18.9443C12.4486 19.1353 12.76 19.1356 12.9547 18.945L18.084 13.9229C18.4005 13.613 18.9338 13.8373 18.9338 14.2802V18.9263C18.9338 19.2024 19.1577 19.4263 19.4338 19.4263H24.696C24.9721 19.4263 25.196 19.2024 25.196 18.9263V16.6945C25.196 16.418 25.4205 16.194 25.697 16.1945L34.3327 16.2123C34.4619 16.2126 34.5859 16.2628 34.6789 16.3525L37.7197 19.2861C37.8129 19.3761 37.9373 19.4263 38.0668 19.4263H50.2376C50.3686 19.4263 50.4943 19.3749 50.5878 19.2832L53.5911 16.3366C53.6846 16.2449 53.8103 16.1935 53.9412 16.1935H62.6127C62.8888 16.1935 63.1127 16.4174 63.1127 16.6935V18.9263C63.1127 19.2024 63.3365 19.4263 63.6127 19.4263H68.8748C69.151 19.4263 69.3748 19.2024 69.3748 18.9263V14.3781C69.3748 13.9346 69.9095 13.7107 70.2256 14.0218L75.57 19.2826C75.6635 19.3747 75.7895 19.4263 75.9207 19.4263H80.7619C81.2111 19.4263 81.4324 18.8801 81.11 18.5674L75.9303 13.5436C75.7276 13.3471 75.7278 13.0218 75.9306 12.8254L81.8478 7.09763ZM25.7002 11.6947C25.4235 11.6956 25.1986 11.4715 25.1986 11.1947V8.16506C25.1986 7.72137 25.7335 7.49749 26.0496 7.80892L29.1138 10.8285C29.4318 11.1419 29.2109 11.6832 28.7645 11.6847L25.7002 11.6947ZM63.1127 11.1833C63.1127 11.4594 62.8888 11.6833 62.6127 11.6833H59.5465C59.0986 11.6833 58.8766 11.1398 59.1964 10.8262L62.2626 7.82029C62.579 7.51012 63.1127 7.73427 63.1127 8.17733V11.1833Z" fill="#09141F"/>
</svg>
