<svg width="284" height="249" viewBox="0 0 284 249" fill="none" xmlns="http://www.w3.org/2000/svg">
<path d="M27.001 82.418C21.8453 72.6376 17.4257 73.7728 10.5372 65.5287C-7.99902 34.0689 10.5372 5.05954 34.001 2.64209" stroke="white" stroke-width="4" stroke-miterlimit="10" stroke-linecap="round" stroke-dasharray="11.65 11.65"/>
<path d="M79.001 148.237C74.0662 148.541 69.1315 147.617 64.301 145.482C54.6367 141.003 43.3568 119.769 40.4289 111.67C37.501 103.571 39.501 101.153 33.001 90.8789" stroke="white" stroke-width="4" stroke-miterlimit="10" stroke-linecap="round" stroke-dasharray="11.65 11.65"/>
<path d="M295.595 232.103C287.599 219.108 274.03 211.981 260.661 211.593C247.291 211.204 234.062 217.009 222.922 226.015C214.622 232.712 207.053 241.287 197.499 244.793C180.951 250.86 161.363 237.445 157.165 217.292C155.275 208.171 156.189 198.556 155.066 189.256C152.192 165.576 134.468 145.633 114.645 143.933C108.13 143.366 99.501 145.876 88.001 148.293" stroke="white" stroke-width="4" stroke-miterlimit="10" stroke-linecap="round" stroke-dasharray="11.65 11.65"/>
<path d="M182.817 218.577L182.824 218.56L182.833 218.544C183.272 217.758 183.549 216.859 183.64 215.919C183.731 214.978 183.632 214.027 183.352 213.142C183.073 212.257 182.622 211.466 182.04 210.83C181.459 210.194 180.765 209.732 180.015 209.472C179.267 209.213 178.479 209.161 177.712 209.319C176.945 209.478 176.214 209.844 175.578 210.396C174.941 210.948 174.418 211.671 174.055 212.512C173.692 213.352 173.502 214.283 173.5 215.229C173.5 216.411 173.796 217.563 174.348 218.542L174.357 218.559L174.366 218.577L178.314 227.078L178.315 227.08C178.351 227.159 178.401 227.215 178.45 227.249L178.163 227.659L178.45 227.249C178.498 227.282 178.545 227.295 178.587 227.295C178.628 227.295 178.675 227.282 178.723 227.249L179.01 227.659L178.723 227.249C178.772 227.215 178.822 227.159 178.858 227.08L178.859 227.077L182.817 218.577ZM180.218 217.937C179.742 218.305 179.173 218.506 178.584 218.504C177.795 218.5 177.058 218.132 176.528 217.512C176 216.895 175.714 216.073 175.714 215.229C175.714 214.596 175.875 213.973 176.182 213.437C176.49 212.901 176.934 212.471 177.469 212.213C178.006 211.955 178.601 211.886 179.177 212.021C179.751 212.155 180.266 212.482 180.663 212.945C181.058 213.408 181.32 213.988 181.425 214.611C181.53 215.233 181.475 215.878 181.264 216.466C181.053 217.055 180.693 217.57 180.218 217.937Z" fill="white" stroke="white"/>
<path d="M20.5878 37.5576C21.1818 37.5573 21.7517 37.3428 22.2255 36.9584C22.6981 36.575 23.0539 36.041 23.2609 35.4333C23.4679 34.8255 23.5207 34.1607 23.4149 33.5204C23.3091 32.8802 23.0476 32.2817 22.6526 31.8044C22.2568 31.3262 21.7405 30.9868 21.1616 30.8488C20.5808 30.7104 19.9808 30.7856 19.4432 31.0579C18.9079 31.3289 18.4668 31.778 18.1634 32.3325C17.8603 32.8866 17.7032 33.5296 17.705 34.1808C17.7051 34.6131 17.7755 35.0427 17.9135 35.4457C18.0515 35.8489 18.2557 36.2205 18.5179 36.5374C18.7803 36.8544 19.0969 37.1118 19.4528 37.2891C19.8089 37.4666 20.195 37.5592 20.5878 37.5576ZM20.5878 37.5576C20.5881 37.5576 20.5885 37.5576 20.5888 37.5576L20.5865 37.0576L20.5865 37.5576C20.587 37.5576 20.5874 37.5576 20.5878 37.5576ZM24.8046 37.7017L24.8121 37.6847L24.821 37.6684C25.2637 36.8478 25.545 35.9079 25.6384 34.9236C25.7319 33.9393 25.6343 32.9431 25.355 32.0156C25.0756 31.0881 24.6238 30.2601 24.0415 29.5946C23.4594 28.9294 22.7651 28.4468 22.0181 28.1755C21.2721 27.9046 20.4876 27.8494 19.724 28.0121C18.9596 28.175 18.2284 28.5538 17.5906 29.1283C16.9522 29.7032 16.4261 30.4577 16.0605 31.3366C15.695 32.2155 15.5021 33.1898 15.5002 34.181V34.1812C15.4972 35.4249 15.7927 36.6374 16.3443 37.6703L16.3526 37.6859L16.3598 37.7021L20.3083 46.5495L20.3092 46.5514C20.3476 46.6385 20.3992 46.6985 20.4485 46.7343C20.4964 46.7691 20.5408 46.7807 20.5777 46.7807C20.6146 46.7807 20.659 46.7691 20.7069 46.7343C20.7561 46.6985 20.8078 46.6385 20.8462 46.5514L20.8472 46.5491L24.8046 37.7017Z" fill="white" stroke="white"/>
<path d="M83.7088 128.231C83.707 127.6 83.8656 126.977 84.1708 126.441C84.4763 125.905 84.9189 125.474 85.4519 125.215C85.9866 124.955 86.5813 124.884 87.1565 125.016C87.7305 125.147 88.2461 125.471 88.6434 125.932C89.0401 126.392 89.3039 126.97 89.4107 127.591C89.5175 128.211 89.4641 128.855 89.2554 129.444C89.0466 130.032 88.6884 130.547 88.2157 130.915L87.9085 130.521L88.2157 130.915C87.742 131.284 87.1754 131.488 86.5876 131.488M83.7088 128.231C83.7089 128.65 83.7799 129.066 83.9191 129.456C84.0583 129.846 84.2638 130.205 84.5271 130.51C84.7904 130.816 85.1072 131.063 85.4615 131.232L85.6773 130.781L85.4615 131.232C85.8159 131.402 86.1988 131.49 86.5876 131.488M83.7088 128.231C83.7088 128.23 83.7088 128.23 83.7088 128.23L84.2088 128.23L83.7088 128.232C83.7088 128.231 83.7088 128.231 83.7088 128.231ZM86.5876 131.488C86.588 131.488 86.5884 131.488 86.5887 131.488L86.5866 130.988L86.5866 131.488C86.5869 131.488 86.5873 131.488 86.5876 131.488ZM81.5002 128.228L81.5002 128.23C81.4996 129.409 81.7957 130.559 82.3462 131.535L82.3557 131.552L82.3639 131.569L86.315 140.05L86.3161 140.052C86.3522 140.131 86.4014 140.187 86.4502 140.221C86.498 140.254 86.5449 140.267 86.5866 140.267C86.6282 140.267 86.6752 140.254 86.723 140.221C86.7718 140.187 86.8209 140.131 86.857 140.052L86.858 140.05L90.8002 131.57L90.8086 131.552L90.8183 131.535C91.2617 130.75 91.5436 129.851 91.6378 128.909C91.732 127.967 91.6355 127.013 91.3572 126.126C91.0789 125.238 90.6279 124.444 90.0454 123.806C89.4631 123.168 88.7668 122.704 88.0154 122.444C87.2646 122.184 86.4745 122.132 85.7058 122.292C84.9367 122.452 84.2036 122.821 83.5669 123.376C82.9298 123.932 82.4071 124.658 82.0461 125.502C81.685 126.346 81.4972 127.28 81.5002 128.228Z" fill="white" stroke="white"/>
</svg>
