<svg width="288" height="232" viewBox="0 0 288 232" fill="none" xmlns="http://www.w3.org/2000/svg">
<path opacity="0.1" d="M143.68 231.602C220.141 231.602 282.125 226.925 282.125 221.156C282.125 215.387 220.141 210.711 143.68 210.711C67.2199 210.711 5.23633 215.387 5.23633 221.156C5.23633 226.925 67.2199 231.602 143.68 231.602Z" fill="black"/>
<path d="M13.1582 55.2092H46.194C48.4444 55.0275 50.4247 56.6625 50.6948 58.9332L60.5065 161.572C60.6865 163.842 23.7801 153.942 23.7801 153.942L13.1582 55.2092Z" fill="#C55B5B"/>
<path d="M107.675 165.114H31.0713C26.8405 165.114 23.4199 161.662 23.4199 157.393V149.4C23.4199 146.403 25.8503 143.95 28.8209 143.95H110.015C112.986 143.95 115.416 146.403 115.416 149.4V157.393C115.326 161.662 111.905 165.114 107.675 165.114Z" fill="#D36054"/>
<path d="M109.924 166.749H51.5943C48.6238 166.749 46.1934 164.296 46.1934 161.299V151.035C46.1934 148.038 48.6238 145.585 51.5943 145.585H109.924C112.895 145.585 115.325 148.038 115.325 151.035V161.299C115.325 164.296 112.895 166.749 109.924 166.749Z" fill="#BC6262"/>
<path d="M51.9532 220.975H46.8223L53.3934 166.749H62.8451L51.9532 220.975Z" fill="#4D2928"/>
<path d="M108.575 220.975H103.444L98.6729 166.749H108.125L108.575 220.975Z" fill="#4D2928"/>
<path d="M53.215 171.002H108.845V166.642H53.215V171.002Z" fill="#4D2928"/>
<path opacity="0.1" d="M51.5049 184.188L53.1252 171.018V166.749H53.6653H63.0269H98.8532H108.305H108.845V171.018H108.215L108.395 184.188H100.383L99.1232 171.018H62.2167L59.5163 184.188" fill="black"/>
<path d="M75.1784 166.749H16.8482C13.8777 166.749 11.4473 164.296 11.4473 161.299V151.035C11.4473 148.038 13.8777 145.585 16.8482 145.585H75.1784C78.1489 145.585 80.5793 148.038 80.5793 151.035V161.299C80.5793 164.296 78.1489 166.749 75.1784 166.749Z" fill="#FA9090"/>
<path d="M9.91692 163.661L0.0151933 60.0232C-0.164838 58.025 1.2754 56.2084 3.25575 56.0267L12.7974 55.1184C14.7778 54.9367 16.5781 56.39 16.7581 58.3883L26.6598 162.026C26.8399 164.024 25.3996 165.841 23.4193 166.022L13.8776 166.931C11.8973 167.203 10.187 165.659 9.91692 163.661Z" fill="#FA9090"/>
<path d="M17.208 220.975H12.0771L18.7383 166.749H28.0999L17.208 220.975Z" fill="#5E3535"/>
<path d="M73.2884 220.975H68.1575L63.9268 166.749H73.3784L73.2884 220.975Z" fill="#5E3535"/>
<path d="M18.3736 171.002H73.8232V166.642H18.3736V171.002Z" fill="#5E3535"/>
<path opacity="0.1" d="M16.7578 184.188L18.3781 171.018V166.749H18.9182H28.3698H64.1061H73.5577H74.0978V171.018H73.4677L73.1077 184.188H65.0963L64.3761 171.018H27.4697L24.8592 184.188" fill="black"/>
<path d="M25.0399 145.585L11.8076 165.931" stroke="#BC6262" stroke-width="2" stroke-miterlimit="10"/>
<path d="M274.293 55.2092H241.257C239.007 55.0275 237.027 56.6625 236.757 58.9332L226.945 161.572C226.765 163.842 263.671 153.942 263.671 153.942L274.293 55.2092Z" fill="#C55B5B"/>
<path d="M179.777 165.114H256.38C260.611 165.114 264.031 161.662 264.031 157.393V149.4C264.031 146.403 261.601 143.95 258.63 143.95H177.436C174.466 143.95 172.035 146.403 172.035 149.4V157.393C172.125 161.662 175.546 165.114 179.777 165.114Z" fill="#D36054"/>
<path d="M177.526 166.749H235.856C238.827 166.749 241.257 164.296 241.257 161.299V151.035C241.257 148.038 238.827 145.585 235.856 145.585H177.526C174.555 145.585 172.125 148.038 172.125 151.035V161.299C172.125 164.296 174.465 166.749 177.526 166.749Z" fill="#BC6262"/>
<path d="M235.497 220.975H240.627L233.966 166.749H224.515L235.497 220.975Z" fill="#4D2928"/>
<path d="M178.786 220.975H184.007L188.778 166.749H179.326L178.786 220.975Z" fill="#4D2928"/>
<path d="M234.235 166.749H178.605V171.109H234.235V166.749Z" fill="#4D2928"/>
<path opacity="0.1" d="M235.945 184.188L234.325 171.018V166.749H233.785H224.333H188.597H179.146H178.605V171.018H179.236L179.056 184.188H187.067L188.327 171.018H225.234L227.844 184.188" fill="black"/>
<path d="M212.181 166.749H270.511C273.482 166.749 275.912 164.296 275.912 161.299V151.035C275.912 148.038 273.482 145.585 270.511 145.585H212.181C209.211 145.585 206.78 148.038 206.78 151.035V161.299C206.78 164.296 209.211 166.749 212.181 166.749Z" fill="#FA9090"/>
<path d="M277.444 163.661L287.345 60.0232C287.525 58.0249 286.085 56.2083 284.105 56.0267L274.563 55.1184C272.583 54.9367 270.783 56.39 270.602 58.3883L260.701 162.026C260.521 164.024 261.961 165.841 263.941 166.022L273.483 166.931C275.463 167.203 277.264 165.659 277.444 163.661Z" fill="#FA9090"/>
<path d="M270.243 220.975H275.374L268.712 166.749H259.261L270.243 220.975Z" fill="#5E3535"/>
<path d="M214.073 220.975H219.204L223.435 166.749H214.073V220.975Z" fill="#5E3535"/>
<path d="M268.982 166.749H213.532V171.109H268.982V166.749Z" fill="#5E3535"/>
<path opacity="0.1" d="M270.693 184.188L269.072 171.018V166.749H268.532H259.081H223.254H213.803H213.353V171.018H213.983L214.253 184.188H222.354L223.074 171.018H259.981L262.591 184.188" fill="black"/>
<path d="M262.32 145.585L275.553 165.931" stroke="#BC6262" stroke-width="2" stroke-miterlimit="10"/>
<path d="M147.371 103.168H140.08V218.522H147.371V103.168Z" fill="#4D2928"/>
<path d="M221.004 149.128C221.004 149.128 191.119 159.664 143.771 159.664C96.4223 159.664 66.5371 149.128 66.5371 149.128L77.609 90.8148H209.842L221.004 149.128Z" fill="#EDEFEF"/>
<path d="M106.953 157.666L107.583 115.157L95.6113 156.122L106.953 157.666Z" fill="#C8D5D6"/>
<path d="M178.245 157.666L177.615 115.157L189.587 156.122L178.245 157.666Z" fill="#C8D5D6"/>
<path d="M211.012 97.7179H76.4385L77.6087 90.8148H209.842L211.012 97.7179Z" fill="#C8D5D6"/>
<path d="M77.609 90.8148L66.5371 149.128L72.2981 150.854L89.6711 96.9005L77.609 90.8148Z" fill="#C8D5D6"/>
<path d="M163.214 16.6973H158.354V23.9637H163.214V16.6973Z" fill="#997B5B"/>
<path d="M209.841 90.8148L221.003 149.128L215.152 150.854L197.779 96.9005L209.841 90.8148Z" fill="#C8D5D6"/>
<path d="M172.755 213.072H114.695V221.065H172.755V213.072Z" fill="#4D2928"/>
<path d="M160.873 38.8599C156.462 38.8599 152.861 42.4931 152.861 46.9438V90.8149H168.974V46.9438C168.884 42.4931 165.283 38.8599 160.873 38.8599Z" fill="#4A6646"/>
<path d="M164.293 21.4204H157.542V39.9498H164.293V21.4204Z" fill="#4A6646"/>
<path d="M168.885 55.4817H154.122V75.0102H168.885V55.4817Z" fill="#EADACA"/>
<path d="M164.744 21.3295H156.822V23.4186H164.744V21.3295Z" fill="#4A6646"/>
<path opacity="0.1" d="M160.873 21.3296H156.822V23.4187H157.542V39.1323C154.842 39.9498 152.861 42.4022 152.861 45.3996V90.9056H160.873" fill="black"/>
<path d="M168.795 58.3884H156.463V59.5692H168.795V58.3884Z" fill="#755E45"/>
<path d="M166.454 70.4688H158.713V71.3771H166.454V70.4688Z" fill="#755E45"/>
<path d="M166.454 72.4671H158.713V73.3754H166.454V72.4671Z" fill="#755E45"/>
<path d="M167.804 65.1098C167.804 66.6539 165.464 67.9255 162.583 67.9255C159.703 67.9255 157.362 66.6539 157.362 65.1098C157.362 63.5656 159.703 62.294 162.583 62.294C165.464 62.294 167.804 63.5656 167.804 65.1098Z" fill="#CC8E52"/>
<path d="M144.31 17.0605L138.188 90.8147" stroke="#2B4C25" stroke-width="2" stroke-miterlimit="10"/>
<path d="M149.983 12.4282C149.713 15.3347 147.103 17.5147 144.132 17.1513C141.252 16.8789 139.091 14.2448 139.451 11.2474C139.631 9.15827 141.072 7.16001 142.242 5.61589C143.772 3.70845 145.572 2.0735 147.643 0.80188C147.643 0.80188 148.363 3.16347 148.453 3.34513C148.813 4.4351 148.903 5.61588 149.083 6.79667C149.173 7.88664 149.353 8.79494 149.623 9.79408C149.803 10.6116 150.073 11.5199 149.983 12.4282Z" fill="#BC3939"/>
<path d="M139.451 11.5199C139.27 14.4265 141.521 16.9697 144.401 17.1514C147.282 17.333 149.802 15.0623 149.982 12.1557C150.072 10.0666 149.082 7.88667 148.092 6.1609C146.922 4.0718 145.392 2.07353 143.591 0.529419C143.591 0.529419 142.421 2.70935 142.331 2.89101C141.791 3.98098 141.521 5.07094 141.161 6.25173C140.891 7.25087 140.531 8.15917 140.081 9.1583C139.901 9.79411 139.541 10.7024 139.451 11.5199Z" fill="#BC3939"/>
<path d="M149.262 14.608C147.732 17.1513 144.491 17.9688 141.971 16.4246C139.45 14.8805 138.64 11.6106 140.171 9.06738C140.981 7.70492 142.511 6.7058 143.771 5.79749C145.301 4.70753 147.192 4.07172 148.992 3.79923C150.792 3.52674 152.683 3.7084 154.393 4.43504C149.982 5.97915 151.242 11.3381 149.262 14.608Z" fill="#C45353"/>
<path d="M139.361 13.5182C140.351 16.3339 143.322 17.7872 146.112 16.8789C148.903 15.8798 150.343 12.8824 149.443 10.0666C148.903 8.61336 147.642 7.2509 146.562 6.16093C145.302 4.79848 143.592 3.70852 141.881 3.07271C140.171 2.4369 138.281 2.1644 136.48 2.52772C140.531 4.98014 138.191 9.88498 139.361 13.5182Z" fill="#BA4545"/>
<path d="M141.16 47.4887C141.34 50.3044 141.34 53.1202 141.25 56.1176L140.89 56.2084C139.99 54.9367 139.36 53.5743 138.91 52.2118C138.46 50.8494 138.009 49.3961 137.739 47.9428C137.469 46.4895 137.289 45.0362 137.289 43.583C137.289 40.7672 137.019 37.9515 136.389 35.2266C133.509 37.5882 129.998 39.2231 126.397 39.8589C127.838 37.679 130.088 36.044 132.248 34.4999C133.059 33.9549 133.779 33.41 134.589 32.865C135.939 31.8659 137.109 32.6833 138.55 33.2283C138.82 33.3191 139.18 33.41 139.36 33.6825C139.54 33.8641 139.63 34.2274 139.72 34.4999C141.16 38.4056 140.98 43.2197 141.16 47.4887Z" fill="#2B4C25"/>
<path opacity="0.8" d="M145.571 41.8572H136.659V90.8148H145.571V41.8572Z" fill="white"/>
<path d="M148.901 24.0544C148.631 25.5077 148.361 26.8702 148.091 28.3235L147.641 30.4126L147.101 32.5017C146.921 33.2283 146.741 33.955 146.561 34.5908C146.381 35.3174 146.111 35.9532 145.751 36.589C145.39 37.2249 144.94 37.8607 144.49 38.4057C143.95 38.9506 143.41 39.4956 142.69 39.9498L142.42 39.7681C142.51 38.1332 142.78 36.8615 143.14 35.4991C143.32 34.8633 143.59 34.1366 143.95 33.5916C144.31 32.9558 144.67 32.32 144.94 31.6842L145.841 29.7768L146.741 27.8693C147.371 26.5977 148.001 25.2352 148.631 23.9636L148.901 24.0544Z" fill="#2B4C25"/>
<path d="M114.155 90.1789H101.192V90.9055H114.155V90.1789Z" fill="#CCCCCC"/>
<path d="M120.276 88.1808H95.0713L101.192 90.179H114.155L120.276 88.1808Z" fill="white"/>
<path d="M102.994 86.2732C101.553 85.8191 100.383 85.8191 98.8528 85.8191C97.4126 85.8191 96.1523 84.6383 96.1523 83.0942C96.1523 81.6409 97.3225 80.3693 98.8528 80.3693C100.293 80.3693 101.553 81.5501 101.553 83.0942" stroke="white" stroke-width="2" stroke-miterlimit="10"/>
<path d="M111.004 88.1807H104.253C104.253 88.1807 99.1221 85.0925 99.1221 78.7344C102.363 78.7344 112.174 78.7344 116.045 78.7344C116.135 85.0017 111.004 88.1807 111.004 88.1807Z" fill="white"/>
<path opacity="0.1" d="M107.674 88.1807H104.253C104.253 88.1807 99.1221 85.0925 99.1221 78.7344C100.832 78.7344 104.163 78.7344 107.584 78.7344" fill="black"/>
<path d="M107.494 76.8269C107.404 75.9186 107.314 75.0103 106.954 74.1929C106.684 73.3754 106.144 72.8304 105.513 72.2854C104.793 71.7404 104.073 71.1955 103.353 70.378C102.993 69.9238 102.723 69.3789 102.633 68.7431C102.543 68.1072 102.633 67.4714 102.813 66.9264C102.993 66.3815 103.353 65.8365 103.713 65.4732C104.073 65.1098 104.523 64.7465 104.883 64.474C105.243 64.2015 105.603 63.929 105.874 63.6565C106.144 63.3841 106.324 63.1116 106.504 62.7482C106.864 62.1124 106.954 61.295 106.774 60.4775C106.594 59.66 106.234 58.8425 105.784 58.0251C106.504 58.57 107.224 59.2967 107.674 60.205C108.124 61.1133 108.214 62.2941 107.854 63.2932C107.674 63.8382 107.404 64.2924 107.044 64.7465C106.684 65.2007 106.324 65.4731 105.964 65.8365C105.243 66.4723 104.793 66.9264 104.523 67.5622C104.433 67.8347 104.343 68.1981 104.433 68.4705C104.433 68.743 104.613 69.0155 104.793 69.3788C105.153 70.0147 105.874 70.5596 106.594 71.2863C106.954 71.6496 107.224 72.1038 107.494 72.5579C107.764 73.0121 107.854 73.557 107.944 74.0112C107.944 75.0103 107.764 75.9186 107.494 76.8269Z" fill="white"/>
<path d="M108.663 67.3804C108.483 67.0171 108.483 66.5629 108.573 66.1996C108.663 65.7454 108.843 65.3821 109.023 65.0188C109.383 64.2922 109.743 63.6564 110.014 63.1114C110.464 61.9306 110.284 60.5681 109.833 59.4782C109.563 58.9332 109.113 58.3882 108.753 57.6616C108.393 56.9349 108.033 56.1174 107.943 55.3C107.673 53.665 108.033 51.9393 108.933 50.6676C108.753 52.2117 108.843 53.665 109.293 54.9366C109.563 55.5725 109.834 56.2083 110.194 56.7532C110.554 57.2982 111.094 57.934 111.454 58.6607C112.264 60.2956 112.174 62.2031 111.364 63.7472C110.914 64.5647 110.374 65.0188 109.833 65.5638C109.113 66.1088 108.663 66.5629 108.663 67.3804Z" fill="white"/>
<path opacity="0.8" d="M184.728 88.7257C184.368 88.5441 184.008 88.3624 183.738 88.0899C183.468 87.7266 183.468 87.2725 183.468 86.8183C183.468 84.5475 183.468 82.2768 183.378 80.006C183.378 78.0986 183.828 75.1012 185.358 73.8296C186.348 72.9213 187.879 72.8304 188.869 71.9221C190.039 70.8322 190.219 69.1064 190.219 67.4715C190.219 64.4741 189.949 57.1168 189.949 54.1194C187.429 54.1194 177.527 54.1194 175.006 54.1194C175.006 57.1168 174.736 64.4741 174.736 67.4715C174.736 69.1064 174.916 70.8322 176.087 71.9221C177.077 72.8304 178.607 72.9213 179.597 73.8296C181.127 75.1012 181.578 78.0986 181.578 80.006C181.578 82.2768 181.578 84.5475 181.488 86.8183C181.488 87.2725 181.488 87.7266 181.217 88.0899C180.947 88.4532 180.587 88.6349 180.227 88.7257C178.337 89.5432 177.257 90.3607 175.276 90.8148C177.617 90.724 179.507 90.8148 182.028 90.8148C184.548 90.9057 186.978 90.9057 189.679 90.9057C187.699 90.4515 186.618 89.5432 184.728 88.7257Z" fill="#F4EFEB"/>
<path d="M184.188 72.1946H180.857C178.067 72.1946 175.727 69.9239 175.727 67.0173V62.5666H189.229V67.0173C189.319 69.9239 187.069 72.1946 184.188 72.1946Z" fill="#892828"/>
<path d="M177.796 69.833C177.346 69.833 176.986 69.4697 176.986 69.0155V65.8365C176.986 65.3823 177.346 65.019 177.796 65.019C178.247 65.019 178.607 65.3823 178.607 65.8365V69.0155C178.607 69.4697 178.247 69.833 177.796 69.833Z" fill="white"/>
</svg>
