<svg width="318" height="211" viewBox="0 0 318 211" fill="none" xmlns="http://www.w3.org/2000/svg">
<path d="M270.15 0.96167H232.75C228.35 0.96167 224.75 4.56167 224.75 8.96167V20.2617H278.25V8.96167C278.25 4.56167 274.65 0.96167 270.15 0.96167Z" fill="#FAFCF7"/>
<path d="M278.95 18.1617H224.15C222.25 18.1617 220.75 19.6617 220.75 21.5617V27.6617H282.35V21.5617C282.35 19.6617 280.75 18.1617 278.95 18.1617Z" fill="#212E3E"/>
<path d="M65.4502 165.662L398.45 164.062C398.45 164.062 411.35 135.662 395.05 119.362C378.75 103.062 98.1502 103.162 80.6502 112.062C62.9502 120.962 49.3502 149.562 65.4502 165.662Z" fill="#19232F"/>
<path d="M131.235 185.036C145.567 170.703 145.567 147.466 131.235 133.134C116.902 118.802 93.6655 118.802 79.3334 133.134C65.0013 147.466 65.0013 170.703 79.3334 185.036C93.6655 199.368 116.902 199.368 131.235 185.036Z" fill="#212E3E"/>
<path d="M122.82 176.621C132.505 166.936 132.505 151.234 122.82 141.549C113.135 131.864 97.4329 131.864 87.748 141.549C78.0631 151.234 78.0631 166.936 87.748 176.621C97.4329 186.306 113.135 186.306 122.82 176.621Z" fill="#CEDEED"/>
<path d="M98.8496 138.962L105.35 156.362L111.85 138.962C109.85 138.362 107.65 138.062 105.35 138.062C103.05 138.062 100.85 138.362 98.8496 138.962Z" fill="#212E3E"/>
<path d="M114.85 140.262L107.15 157.162L124.05 149.462C122.95 147.662 121.65 145.862 120.05 144.262C118.45 142.662 116.75 141.262 114.85 140.262Z" fill="#212E3E"/>
<path d="M125.35 152.562L107.95 159.062L125.35 165.562C125.95 163.562 126.25 161.362 126.25 159.062C126.25 156.762 125.95 154.562 125.35 152.562Z" fill="#212E3E"/>
<path d="M124.05 168.662L107.15 160.962L114.85 177.862C116.65 176.762 118.45 175.462 120.05 173.862C121.75 172.262 123.05 170.462 124.05 168.662Z" fill="#212E3E"/>
<path d="M111.75 179.062L105.25 161.662L98.75 179.062C100.75 179.662 102.95 179.962 105.25 179.962C107.55 179.962 109.75 179.662 111.75 179.062Z" fill="#212E3E"/>
<path d="M95.6502 177.762L103.35 160.862L86.4502 168.562C87.5502 170.362 88.8502 172.162 90.4502 173.762C92.1502 175.462 93.8502 176.762 95.6502 177.762Z" fill="#212E3E"/>
<path d="M85.2496 165.562L102.65 159.062L85.2496 152.562C84.6496 154.562 84.3496 156.762 84.3496 159.062C84.3496 161.262 84.6496 163.462 85.2496 165.562Z" fill="#212E3E"/>
<path d="M86.5498 149.462L103.45 157.162L95.7498 140.262C93.9498 141.362 92.1498 142.662 90.5498 144.262C88.8498 145.862 87.5498 147.562 86.5498 149.462Z" fill="#212E3E"/>
<path d="M105.25 166.662C109.448 166.662 112.85 163.259 112.85 159.062C112.85 154.864 109.448 151.462 105.25 151.462C101.053 151.462 97.6504 154.864 97.6504 159.062C97.6504 163.259 101.053 166.662 105.25 166.662Z" fill="#CEDEED"/>
<path d="M454.65 154.962C444.55 162.162 420.05 163.862 418.25 163.862C418.05 163.862 410.75 163.962 398.35 164.062C398.55 162.462 398.65 160.762 398.65 159.062C398.65 136.762 380.55 118.562 358.15 118.562C356.35 118.562 354.65 118.662 352.95 118.862C348.55 119.462 344.35 120.762 340.45 122.562C336.15 124.662 332.25 127.462 328.95 130.862C328.65 131.162 328.35 131.562 328.05 131.862C325.05 135.162 322.55 139.062 320.85 143.262C318.85 148.062 317.65 153.362 317.65 158.962C317.65 160.862 317.85 162.762 318.05 164.562C266.15 164.962 201.85 165.362 144.95 165.462C145.25 163.362 145.55 161.162 145.55 158.862C145.55 153.262 144.45 147.962 142.35 143.162L142.15 142.762C140.25 138.262 137.45 134.162 134.15 130.762C132.75 129.362 131.35 128.062 129.75 126.862C126.05 124.062 121.85 121.762 117.35 120.362C113.45 119.062 109.25 118.462 104.95 118.462C82.65 118.462 64.45 136.562 64.45 158.962C64.45 161.262 64.65 163.462 65.05 165.562C28.65 165.462 4.25 165.162 3.15 164.362C-1.65 161.362 0.149999 146.462 1.35 135.162C2.55 123.862 15.05 122.662 15.05 122.662C15.05 122.662 23.95 110.762 31.15 101.762C38.35 92.8616 122.35 74.9617 122.35 74.9617C122.35 74.9617 175.35 38.4617 187.35 33.8617C219.85 21.3617 301.65 23.1617 321.25 27.8617C340.95 32.6617 397.05 73.7617 397.05 73.7617C397.05 73.7617 431.65 74.9617 439.35 77.3617C447.05 79.7617 444.75 107.162 444.75 107.162C444.75 107.162 456.05 109.562 456.65 113.162C457.65 116.862 464.75 147.762 454.65 154.962Z" fill="#FFC92E"/>
<path d="M330.25 129.862H133.35C140.95 137.262 145.75 147.562 145.75 158.962C145.75 161.162 145.55 163.362 145.15 165.562C202.05 165.362 266.35 164.962 318.25 164.662C317.95 162.862 317.85 160.962 317.85 159.062C317.85 147.562 322.55 137.262 330.25 129.862Z" fill="#FFC92E"/>
<path d="M117.65 118.562V120.462C113.75 119.162 109.55 118.562 105.25 118.562H117.65Z" fill="#212E3E"/>
<path d="M134.45 130.962H142.45V118.562H130.05V127.062L134.45 130.962Z" fill="#212E3E"/>
<path d="M167.25 118.562H154.85V130.962H167.25V118.562Z" fill="#212E3E"/>
<path d="M192.05 118.562H179.65V130.962H192.05V118.562Z" fill="#212E3E"/>
<path d="M216.75 118.562H204.35V130.962H216.75V118.562Z" fill="#212E3E"/>
<path d="M241.55 118.562H229.15V130.962H241.55V118.562Z" fill="#212E3E"/>
<path d="M266.35 118.562H253.95V130.962H266.35V118.562Z" fill="#212E3E"/>
<path d="M291.05 118.562H278.65V130.962H291.05V118.562Z" fill="#212E3E"/>
<path d="M315.85 118.562H303.45V130.962H315.85V118.562Z" fill="#212E3E"/>
<path d="M142.65 143.362H154.85V130.962H142.45V142.962L142.65 143.362Z" fill="#212E3E"/>
<path d="M179.65 130.962H167.25V143.362H179.65V130.962Z" fill="#212E3E"/>
<path d="M204.35 130.962H191.95V143.362H204.35V130.962Z" fill="#212E3E"/>
<path d="M229.15 130.962H216.75V143.362H229.15V130.962Z" fill="#212E3E"/>
<path d="M253.95 130.962H241.55V143.362H253.95V130.962Z" fill="#212E3E"/>
<path d="M278.65 130.962H266.25V143.362H278.65V130.962Z" fill="#212E3E"/>
<path d="M303.45 130.962H291.05V143.362H303.45V130.962Z" fill="#212E3E"/>
<path d="M328.25 130.962V131.962C325.25 135.262 322.75 139.162 321.05 143.362H315.95V130.962H328.25Z" fill="#212E3E"/>
<path d="M77.2504 129.862H3.45039C2.55039 131.362 1.95039 133.162 1.75039 135.262C0.550389 146.562 -1.24961 161.462 3.55039 164.462C4.65039 165.162 29.0504 165.562 65.4504 165.662C65.0504 163.462 64.8504 161.262 64.8504 159.062C64.8504 147.562 69.6504 137.262 77.2504 129.862Z" fill="#FFC92E"/>
<path d="M380.994 187.867C396.911 175.318 399.642 152.242 387.093 136.325C374.545 120.408 351.469 117.677 335.552 130.226C319.635 142.774 316.904 165.85 329.452 181.767C342.001 197.684 365.077 200.415 380.994 187.867Z" fill="#212E3E"/>
<path d="M189.45 37.1617L184.25 35.5616C165.05 44.7616 122.65 75.1617 122.65 75.1617C122.65 75.1617 128.05 75.1617 141.95 75.1617C153.95 75.1617 182.55 47.3617 190.05 39.8617C190.95 38.9617 190.55 37.5617 189.45 37.1617Z" fill="#212E3E"/>
<path d="M325.35 38.7617C325.35 38.7617 304.55 30.4617 269.25 31.4617V80.4617C301.45 79.8617 333.45 79.2617 333.45 79.2617C333.45 79.2617 361.85 79.0616 365.75 75.1616C369.75 71.1616 342.65 47.4617 325.35 38.7617Z" fill="#212E3E"/>
<path d="M259.35 31.8617C243.45 32.8617 228.45 33.6617 211.95 36.6617C203.45 38.2617 199.15 39.5617 192.35 44.9617C181.35 53.5617 164.65 69.6617 164.65 75.1617C164.65 83.5617 187.85 81.3617 207.25 81.3617C213.45 81.3617 228.75 81.1617 246.65 80.8617L259.35 31.8617Z" fill="#212E3E"/>
<path d="M31.5503 101.962C31.5503 101.962 55.6503 99.1616 57.8503 106.162C60.0503 113.162 42.4503 118.062 34.6503 119.862C30.4503 120.862 15.4503 122.762 15.4503 122.762C15.4503 122.762 15.2503 109.562 31.5503 101.962Z" fill="#FAFCF7"/>
<path d="M164.65 71.5617C164.65 71.5617 167.95 72.6617 169.05 71.5617C170.05 70.5617 171.25 66.7617 177.15 65.0617C178.35 64.7617 179.55 65.4617 179.75 66.5617C180.65 70.1617 182.15 77.6617 180.65 79.1617C178.65 81.1617 171.65 79.0618 169.55 76.9618L164.65 80.3618C164.65 80.4618 161.05 75.1617 164.65 71.5617Z" fill="#EECD57"/>
<path d="M239.15 86.5616H216.25C213.95 86.5616 212.05 88.4617 212.05 90.7617C212.05 93.0617 213.95 94.9617 216.25 94.9617H239.15C241.45 94.9617 243.35 93.0617 243.35 90.7617C243.45 88.4617 241.55 86.5616 239.15 86.5616Z" fill="#FAFCF7"/>
<path d="M235.446 4.39592V3.24007H243.516V4.39592H240.132V14H238.829V4.39592H235.446ZM244.711 14H243.345L247.296 3.24007H248.641L252.592 14H251.226L248.011 4.94233H247.927L244.711 14ZM245.216 9.7969H250.722V10.9528H245.216V9.7969ZM254.898 3.24007L257.672 7.71637H257.757L260.531 3.24007H262.065L258.681 8.62004L262.065 14H260.531L257.757 9.60776H257.672L254.898 14H253.364L256.832 8.62004L253.364 3.24007H254.898ZM265.063 3.24007V14H263.76V3.24007H265.063Z" fill="#212E3E"/>
</svg>
