<svg width="127" height="179" viewBox="0 0 127 179" fill="none" xmlns="http://www.w3.org/2000/svg">
<path d="M79.29 2.36653C79.29 2.36653 65.81 2.73653 64.21 17.5365C63.02 28.5365 65.05 37.7265 56.46 46.3865C56.46 46.3865 81.58 55.5965 117.08 45.6565C117.08 45.6565 109.86 35.7365 110.27 24.8765C110.68 14.0165 107.67 9.17653 102.09 4.94653C96.51 0.716526 85.05 -1.95347 79.29 2.36653Z" fill="#F66390"/>
<path d="M74.4298 28.0765C74.6598 33.3665 72.4297 37.7965 68.2997 37.9865C64.1697 38.1765 59.5197 33.9865 59.2997 28.7465C59.0797 23.5065 63.2998 19.0165 67.4698 18.8265C71.6398 18.6365 74.2098 22.7865 74.4298 28.0765Z" fill="#51474D"/>
<path d="M70.827 38.5957C75.3403 38.3963 78.7945 33.6053 78.5421 27.8947C78.2898 22.1841 74.4265 17.7165 69.9132 17.9159C65.4 18.1153 61.9458 22.9063 62.1981 28.6169C62.4504 34.3275 66.3137 38.7951 70.827 38.5957Z" fill="#312220"/>
<path d="M79.2798 44.9565L79.3998 56.8765C79.3998 61.0965 82.2198 63.6765 86.3998 63.7065C89.9398 63.7065 94.0298 61.7065 94.4898 58.2065L93.4898 39.2965L79.2798 44.9565Z" fill="#EDBA98"/>
<path d="M79.38 54.6665L92.67 41.9965L79.27 43.7365L79.38 54.6665Z" fill="#D79471"/>
<path d="M79.63 47.3765C71.63 46.7965 65.48 39.3765 65.73 32.8365L66.36 18.6565C66.513 14.7162 68.1913 10.9896 71.0405 8.26358C73.8897 5.53752 77.6868 4.02541 81.63 4.04654C90.02 4.09654 98.26 10.9465 98.21 19.3365L97.53 31.7365C97 41.3165 89.21 47.4265 79.63 47.3765Z" fill="#EDBA98"/>
<path d="M73.7 30.0966L73.32 31.9966C73.3001 32.1034 73.3024 32.2132 73.3269 32.3191C73.3514 32.425 73.3974 32.5247 73.4622 32.612C73.527 32.6993 73.609 32.7723 73.7033 32.8264C73.7976 32.8806 73.902 32.9146 74.01 32.9266L75.01 33.0466" stroke="#312220" stroke-width="0.84" stroke-linecap="round" stroke-linejoin="round"/>
<path d="M78.8898 36.4566C77.7974 36.9615 76.5965 37.1866 75.3954 37.1116C74.1943 37.0365 73.0308 36.6636 72.0098 36.0266" stroke="#312220" stroke-width="0.84" stroke-linecap="round" stroke-linejoin="round"/>
<path d="M72.3896 20.7365C72.3896 20.7365 72.6096 21.9665 70.9696 21.9465C70.0451 21.8809 69.1161 21.9178 68.1996 22.0565C68.0056 22.0996 67.8028 22.0779 67.6222 21.9948C67.4416 21.9118 67.2932 21.7719 67.1996 21.5965C67.1273 21.4606 67.1019 21.3046 67.1272 21.1528C67.1525 21.0009 67.2272 20.8616 67.3396 20.7565C68.105 20.0051 69.1371 19.5879 70.2096 19.5965C72.2096 19.5965 72.3896 20.7365 72.3896 20.7365Z" fill="#332C30"/>
<path d="M79.3298 20.8865C79.3298 20.8865 78.8198 22.0765 81.0898 22.2465C82.3622 22.2994 83.629 22.4465 84.8798 22.6865C85.1327 22.7601 85.4002 22.7685 85.6573 22.7108C85.9143 22.653 86.1526 22.5312 86.3498 22.3565C86.4113 22.303 86.4606 22.237 86.4944 22.1628C86.5281 22.0886 86.5456 22.008 86.5456 21.9265C86.5456 21.845 86.5281 21.7645 86.4944 21.6903C86.4606 21.6161 86.4113 21.55 86.3498 21.4965C85.2555 20.6041 83.9007 20.0917 82.4898 20.0365C79.7498 19.8065 79.3298 20.8865 79.3298 20.8865Z" fill="#332C30"/>
<path d="M80.21 27.8665C80.7992 28.1193 81.4337 28.2497 82.075 28.2497C82.7162 28.2497 83.3507 28.1193 83.94 27.8665" stroke="#312220" stroke-width="0.84" stroke-linecap="round" stroke-linejoin="round"/>
<path d="M68.21 27.5565C68.6371 27.8326 69.1304 27.9893 69.6386 28.0104C70.1468 28.0315 70.6514 27.9162 71.1 27.6765" stroke="#312220" stroke-width="0.84" stroke-linecap="round" stroke-linejoin="round"/>
<path d="M77.7498 2.58655C77.7498 2.58655 74.8898 3.52655 74.7498 8.66655C74.6098 13.8065 86.2098 20.0965 103.21 24.4865C103.927 21.9568 103.946 19.2797 103.262 16.7404C102.579 14.2011 101.22 11.8946 99.3298 10.0665C92.7398 3.46655 87.5498 2.58655 87.5498 2.58655H77.7498Z" fill="#F66390"/>
<path d="M66.3599 18.6565C66.3599 18.6565 76.9299 11.6565 76.7499 5.15655C76.7499 5.15655 79.3899 2.72655 73.3199 4.75655C67.2499 6.78655 64.7399 14.6065 66.3599 18.6565Z" fill="#F66390"/>
<path d="M91.3198 18.5266C91.3198 23.3666 95.3998 31.5765 95.3998 31.5765L99.4798 22.7365L91.3198 18.5266Z" fill="#F66390"/>
<path d="M73.55 2.35651C73.55 2.35651 68.34 4.04651 68.21 7.73651C68.21 7.73651 72.44 3.04651 78.05 2.73651L73.55 2.35651Z" fill="#312220"/>
<path d="M102.09 20.9965C102.09 20.9965 99.4798 0.166513 81.9698 0.996513C79.1177 1.12209 76.2909 1.58874 73.5498 2.38651C73.5498 2.38651 90.4398 3.04651 96.2998 23.0765C96.2998 23.0465 96.8498 20.3865 102.09 20.9965Z" fill="#312220"/>
<path d="M109.133 30.0087C109.386 24.2981 105.932 19.5071 101.418 19.3077C96.905 19.1082 93.0417 23.5759 92.7894 29.2865C92.5371 34.9971 95.9913 39.7881 100.505 39.9875C105.018 40.1869 108.881 35.7192 109.133 30.0087Z" fill="#312220"/>
<path d="M96.9598 29.4465C96.7298 34.7365 99.9598 39.1765 104.11 39.3665C108.26 39.5565 111.87 35.3665 112.11 30.1165C112.35 24.8665 109.11 20.3865 104.97 20.2065C100.83 20.0265 97.2098 24.1565 96.9598 29.4465Z" fill="#51474D"/>
<path d="M65.1296 138.817L53.8696 178.737H124.74C130.18 162.447 117.61 138.967 117.61 138.967L65.1296 138.817Z" fill="#332C30"/>
<path d="M52.4998 88.7365L46.7798 122.517C46.6175 123.703 46.6936 124.91 47.0036 126.066C47.3136 127.223 47.8512 128.306 48.5851 129.252C49.3189 130.198 50.2342 130.989 51.2773 131.577C52.3204 132.165 53.4704 132.539 54.6598 132.677C56.8548 132.919 59.062 132.345 60.8617 131.065C62.6613 129.786 63.9277 127.889 64.4198 125.737L71.5598 93.4065L52.4998 88.7365Z" fill="#EDBA98"/>
<path d="M45.5298 95.2765L50.3398 74.8965C51.2798 68.0765 58.4498 63.1565 65.3398 63.6265C72.6998 64.1265 77.6098 70.3665 76.9198 77.6965L74.1698 97.6965L45.5298 95.2765Z" fill="#B2559C"/>
<path d="M64.1297 121.907C64.4833 123.119 64.5615 124.395 64.3586 125.642C64.1557 126.889 63.6769 128.074 62.9572 129.112C62.2374 130.15 61.2949 131.014 60.1984 131.641C59.102 132.268 57.8793 132.643 56.6198 132.737L17.2097 139.517L10.7397 129.937L54.8897 114.507C59.0097 113.737 62.9297 117.847 64.1297 121.907Z" fill="#EDBA98"/>
<path d="M19.6196 144.327C21.1574 142.916 22.2425 141.082 22.7378 139.055C23.2331 137.029 23.1164 134.901 22.4025 132.94C21.6885 130.98 20.4093 129.275 18.7266 128.042C17.0439 126.808 15.0333 126.102 12.949 126.011C10.8646 125.92 8.80009 126.449 7.01645 127.531C5.2328 128.614 3.81012 130.201 2.92825 132.091C2.04638 133.982 1.74493 136.092 2.06201 138.154C2.37909 140.216 3.30047 142.138 4.70965 143.677C5.64576 144.699 6.77407 145.526 8.03012 146.112C9.28617 146.698 10.6453 147.03 12.03 147.091C13.4146 147.151 14.7976 146.938 16.0998 146.464C17.4021 145.989 18.5981 145.263 19.6196 144.327Z" fill="#EDBA98"/>
<path d="M1.95983 135.827C1.95983 135.827 -2.19017 133.387 1.59983 129.347C5.38983 125.307 12.5098 122.167 20.2698 129.417L1.95983 135.827Z" fill="#EDBA98"/>
<path d="M73.3998 59.4165L60.2198 64.2265L59.7598 82.9665L65.1198 138.817L117.6 138.957L125.31 77.9965L118.53 63.2765L101.43 57.3265L73.3998 59.4165Z" fill="#B2559C"/>
<path d="M83.3698 55.7965L73.3698 59.4165C73.3698 59.4165 69.9798 66.9165 85.3698 66.9665C101.37 67.0265 101.37 57.3165 101.37 57.3165L91.6598 53.8265L83.3698 55.7965Z" fill="#EDBA98"/>
<path d="M42.21 83.4365C54.51 146.597 85.21 121.737 83.95 90.1065C82.95 65.4065 95.45 55.1065 95.45 55.1065C95.45 55.1065 104.78 47.1065 101.45 39.2565" stroke="#312220" stroke-width="0.8" stroke-miterlimit="10"/>
<path d="M95.1298 120.896C94.2971 121.834 93.2627 122.569 92.1045 123.049C90.9463 123.529 89.6944 123.739 88.4431 123.665C87.1917 123.591 85.9734 123.234 84.8799 122.621C83.7864 122.008 82.8461 121.155 82.1298 120.126L49.5898 88.3065L56.4798 80.0365L95.0498 105.036C97.8798 108.236 97.9498 117.736 95.1298 120.896Z" fill="#EDBA98"/>
<path d="M45.21 72.5865C45.21 72.5865 46.9 66.9165 52.33 67.9965C57.76 69.0765 62.33 74.3565 60.33 84.7765L45.21 72.5865Z" fill="#EDBA98"/>
<path d="M29.9197 55.6265C31.4497 61.2565 35.8497 77.7065 37.1397 82.5265C37.24 82.9033 37.4712 83.232 37.7919 83.4538C38.1126 83.6755 38.5018 83.7758 38.8897 83.7365L52.9497 82.4465C53.1933 82.4254 53.4291 82.3504 53.6401 82.2269C53.8511 82.1035 54.032 81.9347 54.1698 81.7328C54.3076 81.5309 54.3988 81.3009 54.4369 81.0594C54.4749 80.8179 54.4588 80.571 54.3897 80.3365L46.5397 53.4965C46.4305 53.1292 46.1975 52.811 45.8804 52.5959C45.5632 52.3809 45.1814 52.2821 44.7997 52.3165L31.3597 53.5465C31.1196 53.5686 30.8872 53.6431 30.6789 53.7647C30.4706 53.8863 30.2915 54.0521 30.1542 54.2504C30.0169 54.4487 29.9248 54.6747 29.8843 54.9124C29.8438 55.1502 29.8559 55.3939 29.9197 55.6265Z" fill="#332C30"/>
<path d="M46.76 90.8365C52.37 92.4065 58.76 90.3865 60.32 84.7765C60.699 83.4403 60.8105 82.0424 60.648 80.663C60.4856 79.2837 60.0523 77.9499 59.3731 76.7384C58.694 75.5268 57.7822 74.4613 56.6903 73.603C55.5983 72.7446 54.3476 72.1104 53.01 71.7365C47.4 70.1565 40.42 71.5665 38.84 77.1765C37.26 82.7865 41.14 89.2565 46.76 90.8365Z" fill="#EDBA98"/>
<path d="M97.34 81.6165L82.45 110.077C81.7558 111.053 81.2636 112.158 81.0023 113.328C80.741 114.497 80.7158 115.707 80.9281 116.886C81.1405 118.065 81.5862 119.19 82.239 120.195C82.8919 121.199 83.7387 122.063 84.73 122.737C86.5659 123.967 88.7904 124.479 90.9795 124.174C93.1686 123.87 95.1692 122.771 96.6 121.087L114.6 94.6065L97.34 81.6165Z" fill="#EDBA98"/>
<path d="M90.8896 85.8665L103.89 68.2365C105.812 65.5295 108.689 63.6531 111.942 62.9867C115.194 62.3203 118.578 62.9135 121.41 64.6465C127.7 68.4965 128.13 80.0365 122.94 87.2165L115.94 101.987L90.8896 85.8665Z" fill="#B2559C"/>
<path d="M98.8297 72.5865L90.8896 85.8665L93.7096 87.6766" stroke="#822E72" stroke-width="1.06" stroke-miterlimit="10"/>
<path d="M111.5 99.1165L114.86 101.277L123.67 86.1465" stroke="#822E72" stroke-width="1.06" stroke-miterlimit="10"/>
</svg>
